<?xml version="1.0" standalone="yes"?>

<svg version="1.1" viewBox="0.0 0.0 503.496062992126 387.6929133858268" fill="none" stroke="none" stroke-linecap="square" stroke-miterlimit="10" xmlns="http://www.w3.org/2000/svg" xmlns:xlink="http://www.w3.org/1999/xlink"><clipPath id="p.0"><path d="m0 0l503.49606 0l0 387.6929l-503.49606 0l0 -387.6929z" clip-rule="nonzero"></path></clipPath><g clip-path="url(#p.0)"><path fill="#000000" fill-opacity="0.0" d="m0 0l503.49606 0l0 387.6929l-503.49606 0z" fill-rule="nonzero"></path><path fill="#0194d3" d="m49.062992 86.603676l0 0c0 -11.489265 9.313889 -20.803154 20.80315 -20.803154l0 0c5.517334 0 10.808701 2.1917572 14.710045 6.0931015c3.901352 3.901352 6.0931015 9.192711 6.0931015 14.7100525l0 0c0 11.489258 -9.313881 20.803146 -20.803146 20.803146l0 0c-11.489262 0 -20.80315 -9.313889 -20.80315 -20.803146z" fill-rule="nonzero"></path><path stroke="#000000" stroke-width="1.0" stroke-linejoin="round" stroke-linecap="butt" d="m49.062992 86.603676l0 0c0 -11.489265 9.313889 -20.803154 20.80315 -20.803154l0 0c5.517334 0 10.808701 2.1917572 14.710045 6.0931015c3.901352 3.901352 6.0931015 9.192711 6.0931015 14.7100525l0 0c0 11.489258 -9.313881 20.803146 -20.803146 20.803146l0 0c-11.489262 0 -20.80315 -9.313889 -20.80315 -20.803146z" fill-rule="nonzero"></path><path fill="#49dea4" d="m230.24672 141.69292l0 0c0 -11.489273 9.313889 -20.803154 20.803146 -20.803154l0 0c5.517334 0 10.808716 2.1917572 14.7100525 6.0931015c3.9013367 3.901352 6.093109 9.192703 6.093109 14.7100525l0 0c0 11.489258 -9.313904 20.803146 -20.803162 20.803146l0 0c-11.489258 0 -20.803146 -9.313889 -20.803146 -20.803146z" fill-rule="nonzero"></path><path stroke="#000000" stroke-width="1.0" stroke-linejoin="round" stroke-linecap="butt" d="m230.24672 141.69292l0 0c0 -11.489273 9.313889 -20.803154 20.803146 -20.803154l0 0c5.517334 0 10.808716 2.1917572 14.7100525 6.0931015c3.9013367 3.901352 6.093109 9.192703 6.093109 14.7100525l0 0c0 11.489258 -9.313904 20.803146 -20.803162 20.803146l0 0c-11.489258 0 -20.803146 -9.313889 -20.803146 -20.803146z" fill-rule="nonzero"></path><path fill="#0194d3" d="m49.062992 141.69292l0 0c0 -11.489273 9.313889 -20.803154 20.80315 -20.803154l0 0c5.517334 0 10.808701 2.1917572 14.710045 6.0931015c3.901352 3.901352 6.0931015 9.192703 6.0931015 14.7100525l0 0c0 11.489258 -9.313881 20.803146 -20.803146 20.803146l0 0c-11.489262 0 -20.80315 -9.313889 -20.80315 -20.803146z" fill-rule="nonzero"></path><path stroke="#000000" stroke-width="1.0" stroke-linejoin="round" stroke-linecap="butt" d="m49.062992 141.69292l0 0c0 -11.489273 9.313889 -20.803154 20.80315 -20.803154l0 0c5.517334 0 10.808701 2.1917572 14.710045 6.0931015c3.901352 3.901352 6.0931015 9.192703 6.0931015 14.7100525l0 0c0 11.489258 -9.313881 20.803146 -20.803146 20.803146l0 0c-11.489262 0 -20.80315 -9.313889 -20.80315 -20.803146z" fill-rule="nonzero"></path><path fill="#0194d3" d="m49.062992 196.78215l0 0c0 -11.489258 9.313889 -20.803146 20.80315 -20.803146l0 0c5.517334 0 10.808701 2.1917572 14.710045 6.093094c3.901352 3.901352 6.0931015 9.1927185 6.0931015 14.7100525l0 0c0 11.489258 -9.313881 20.803146 -20.803146 20.803146l0 0c-11.489262 0 -20.80315 -9.313889 -20.80315 -20.803146z" fill-rule="nonzero"></path><path stroke="#000000" stroke-width="1.0" stroke-linejoin="round" stroke-linecap="butt" d="m49.062992 196.78215l0 0c0 -11.489258 9.313889 -20.803146 20.80315 -20.803146l0 0c5.517334 0 10.808701 2.1917572 14.710045 6.093094c3.901352 3.901352 6.0931015 9.1927185 6.0931015 14.7100525l0 0c0 11.489258 -9.313881 20.803146 -20.803146 20.803146l0 0c-11.489262 0 -20.80315 -9.313889 -20.80315 -20.803146z" fill-rule="nonzero"></path><path fill="#0194d3" d="m49.062992 251.87138l0 0c0 -11.489258 9.313889 -20.803146 20.80315 -20.803146l0 0c5.517334 0 10.808701 2.1917572 14.710045 6.093109c3.901352 3.9013367 6.0931015 9.192703 6.0931015 14.710037l0 0c0 11.489273 -9.313881 20.803146 -20.803146 20.803146l0 0c-11.489262 0 -20.80315 -9.313873 -20.80315 -20.803146z" fill-rule="nonzero"></path><path stroke="#000000" stroke-width="1.0" stroke-linejoin="round" stroke-linecap="butt" d="m49.062992 251.87138l0 0c0 -11.489258 9.313889 -20.803146 20.80315 -20.803146l0 0c5.517334 0 10.808701 2.1917572 14.710045 6.093109c3.901352 3.9013367 6.0931015 9.192703 6.0931015 14.710037l0 0c0 11.489273 -9.313881 20.803146 -20.803146 20.803146l0 0c-11.489262 0 -20.80315 -9.313873 -20.80315 -20.803146z" fill-rule="nonzero"></path><path fill="#0194d3" d="m49.062992 306.96063l0 0c0 -11.489258 9.313889 -20.803162 20.80315 -20.803162l0 0c5.517334 0 10.808701 2.1917725 14.710045 6.093109c3.901352 3.9013367 6.0931015 9.1927185 6.0931015 14.7100525l0 0c0 11.489258 -9.313881 20.803162 -20.803146 20.803162l0 0c-11.489262 0 -20.80315 -9.313904 -20.80315 -20.803162z" fill-rule="nonzero"></path><path stroke="#000000" stroke-width="1.0" stroke-linejoin="round" stroke-linecap="butt" d="m49.062992 306.96063l0 0c0 -11.489258 9.313889 -20.803162 20.80315 -20.803162l0 0c5.517334 0 10.808701 2.1917725 14.710045 6.093109c3.901352 3.9013367 6.0931015 9.1927185 6.0931015 14.7100525l0 0c0 11.489258 -9.313881 20.803162 -20.803146 20.803162l0 0c-11.489262 0 -20.80315 -9.313904 -20.80315 -20.803162z" fill-rule="nonzero"></path><path fill="#0194d3" d="m49.062992 362.04987l0 0c0 -11.489258 9.313889 -20.803162 20.80315 -20.803162l0 0c5.517334 0 10.808701 2.1917725 14.710045 6.093109c3.901352 3.9013672 6.0931015 9.1927185 6.0931015 14.7100525l0 0c0 11.489258 -9.313881 20.803162 -20.803146 20.803162l0 0c-11.489262 0 -20.80315 -9.313904 -20.80315 -20.803162z" fill-rule="nonzero"></path><path stroke="#000000" stroke-width="1.0" stroke-linejoin="round" stroke-linecap="butt" d="m49.062992 362.04987l0 0c0 -11.489258 9.313889 -20.803162 20.80315 -20.803162l0 0c5.517334 0 10.808701 2.1917725 14.710045 6.093109c3.901352 3.9013672 6.0931015 9.1927185 6.0931015 14.7100525l0 0c0 11.489258 -9.313881 20.803162 -20.803146 20.803162l0 0c-11.489262 0 -20.80315 -9.313904 -20.80315 -20.803162z" fill-rule="nonzero"></path><path fill="#49dea4" d="m230.24672 196.78215l0 0c0 -11.489258 9.313889 -20.803146 20.803146 -20.803146l0 0c5.517334 0 10.808716 2.1917572 14.7100525 6.093094c3.9013367 3.901352 6.093109 9.1927185 6.093109 14.7100525l0 0c0 11.489258 -9.313904 20.803146 -20.803162 20.803146l0 0c-11.489258 0 -20.803146 -9.313889 -20.803146 -20.803146z" fill-rule="nonzero"></path><path stroke="#000000" stroke-width="1.0" stroke-linejoin="round" stroke-linecap="butt" d="m230.24672 196.78215l0 0c0 -11.489258 9.313889 -20.803146 20.803146 -20.803146l0 0c5.517334 0 10.808716 2.1917572 14.7100525 6.093094c3.9013367 3.901352 6.093109 9.1927185 6.093109 14.7100525l0 0c0 11.489258 -9.313904 20.803146 -20.803162 20.803146l0 0c-11.489258 0 -20.803146 -9.313889 -20.803146 -20.803146z" fill-rule="nonzero"></path><path fill="#49dea4" d="m230.24672 251.87138l0 0c0 -11.489258 9.313889 -20.803146 20.803146 -20.803146l0 0c5.517334 0 10.808716 2.1917572 14.7100525 6.093109c3.9013367 3.9013367 6.093109 9.192703 6.093109 14.710037l0 0c0 11.489273 -9.313904 20.803146 -20.803162 20.803146l0 0c-11.489258 0 -20.803146 -9.313873 -20.803146 -20.803146z" fill-rule="nonzero"></path><path stroke="#000000" stroke-width="1.0" stroke-linejoin="round" stroke-linecap="butt" d="m230.24672 251.87138l0 0c0 -11.489258 9.313889 -20.803146 20.803146 -20.803146l0 0c5.517334 0 10.808716 2.1917572 14.7100525 6.093109c3.9013367 3.9013367 6.093109 9.192703 6.093109 14.710037l0 0c0 11.489273 -9.313904 20.803146 -20.803162 20.803146l0 0c-11.489258 0 -20.803146 -9.313873 -20.803146 -20.803146z" fill-rule="nonzero"></path><path fill="#49dea4" d="m230.24672 306.96063l0 0c0 -11.489258 9.313889 -20.803162 20.803146 -20.803162l0 0c5.517334 0 10.808716 2.1917725 14.7100525 6.093109c3.9013367 3.9013367 6.093109 9.1927185 6.093109 14.7100525l0 0c0 11.489258 -9.313904 20.803162 -20.803162 20.803162l0 0c-11.489258 0 -20.803146 -9.313904 -20.803146 -20.803162z" fill-rule="nonzero"></path><path stroke="#000000" stroke-width="1.0" stroke-linejoin="round" stroke-linecap="butt" d="m230.24672 306.96063l0 0c0 -11.489258 9.313889 -20.803162 20.803146 -20.803162l0 0c5.517334 0 10.808716 2.1917725 14.7100525 6.093109c3.9013367 3.9013367 6.093109 9.1927185 6.093109 14.7100525l0 0c0 11.489258 -9.313904 20.803162 -20.803162 20.803162l0 0c-11.489258 0 -20.803146 -9.313904 -20.803146 -20.803162z" fill-rule="nonzero"></path><path fill="#ffc425" d="m409.1811 224.32283l0 0c0 -11.489258 9.313904 -20.803146 20.803162 -20.803146l0 0c5.517334 0 10.808685 2.1917572 14.7100525 6.093109c3.9013367 3.9013367 6.093109 9.192703 6.093109 14.710037l0 0c0 11.489273 -9.313904 20.803162 -20.803162 20.803162l0 0c-11.489258 0 -20.803162 -9.313889 -20.803162 -20.803162z" fill-rule="nonzero"></path><path stroke="#000000" stroke-width="1.0" stroke-linejoin="round" stroke-linecap="butt" d="m409.1811 224.32283l0 0c0 -11.489258 9.313904 -20.803146 20.803162 -20.803146l0 0c5.517334 0 10.808685 2.1917572 14.7100525 6.093109c3.9013367 3.9013367 6.093109 9.192703 6.093109 14.710037l0 0c0 11.489273 -9.313904 20.803162 -20.803162 20.803162l0 0c-11.489258 0 -20.803162 -9.313889 -20.803162 -20.803162z" fill-rule="nonzero"></path><path fill="#ffc425" d="m409.18634 282.33334l0 0c0 -11.489258 9.313904 -20.803162 20.803162 -20.803162l0 0c5.517334 0 10.808685 2.191742 14.7100525 6.093109c3.9013367 3.9013367 6.093109 9.1927185 6.093109 14.7100525l0 0c0 11.489258 -9.313904 20.803131 -20.803162 20.803131l0 0c-11.489258 0 -20.803162 -9.313873 -20.803162 -20.803131z" fill-rule="nonzero"></path><path stroke="#000000" stroke-width="1.0" stroke-linejoin="round" stroke-linecap="butt" d="m409.18634 282.33334l0 0c0 -11.489258 9.313904 -20.803162 20.803162 -20.803162l0 0c5.517334 0 10.808685 2.191742 14.7100525 6.093109c3.9013367 3.9013367 6.093109 9.1927185 6.093109 14.7100525l0 0c0 11.489258 -9.313904 20.803131 -20.803162 20.803131l0 0c-11.489258 0 -20.803162 -9.313873 -20.803162 -20.803131z" fill-rule="nonzero"></path><path fill="#ffc425" d="m409.1811 166.31233l0 0c0 -11.489258 9.313904 -20.803146 20.803162 -20.803146l0 0c5.517334 0 10.808685 2.1917572 14.7100525 6.093109c3.9013367 3.9013367 6.093109 9.192703 6.093109 14.710037l0 0c0 11.489273 -9.313904 20.803146 -20.803162 20.803146l0 0c-11.489258 0 -20.803162 -9.313873 -20.803162 -20.803146z" fill-rule="nonzero"></path><path stroke="#000000" stroke-width="1.0" stroke-linejoin="round" stroke-linecap="butt" d="m409.1811 166.31233l0 0c0 -11.489258 9.313904 -20.803146 20.803162 -20.803146l0 0c5.517334 0 10.808685 2.1917572 14.7100525 6.093109c3.9013367 3.9013367 6.093109 9.192703 6.093109 14.710037l0 0c0 11.489273 -9.313904 20.803146 -20.803162 20.803146l0 0c-11.489258 0 -20.803162 -9.313873 -20.803162 -20.803146z" fill-rule="nonzero"></path><path fill="#000000" fill-opacity="0.0" d="m90.66929 86.603676l139.59055 55.086617" fill-rule="nonzero"></path><path stroke="#000000" stroke-width="1.0" stroke-linejoin="round" stroke-linecap="butt" d="m90.66929 86.603676l139.59055 55.086617" fill-rule="nonzero"></path><path fill="#000000" fill-opacity="0.0" d="m90.66929 141.69423l139.59055 55.08661" fill-rule="nonzero"></path><path stroke="#000000" stroke-width="1.0" stroke-linejoin="round" stroke-linecap="butt" d="m90.66929 141.69423l139.59055 55.08661" fill-rule="nonzero"></path><path fill="#000000" fill-opacity="0.0" d="m90.656166 196.78477l139.59055 55.08661" fill-rule="nonzero"></path><path stroke="#000000" stroke-width="1.0" stroke-linejoin="round" stroke-linecap="butt" d="m90.656166 196.78477l139.59055 55.08661" fill-rule="nonzero"></path><path fill="#000000" fill-opacity="0.0" d="m90.66929 251.87401l139.59055 55.086624" fill-rule="nonzero"></path><path stroke="#000000" stroke-width="1.0" stroke-linejoin="round" stroke-linecap="butt" d="m90.66929 251.87401l139.59055 55.086624" fill-rule="nonzero"></path><path fill="#000000" fill-opacity="0.0" d="m90.66929 362.04987l139.59055 -55.08661" fill-rule="nonzero"></path><path stroke="#000000" stroke-width="1.0" stroke-linejoin="round" stroke-linecap="butt" d="m90.66929 362.04987l139.59055 -55.08661" fill-rule="nonzero"></path><path fill="#000000" fill-opacity="0.0" d="m90.66929 306.96063l139.59055 -55.086624" fill-rule="nonzero"></path><path stroke="#000000" stroke-width="1.0" stroke-linejoin="round" stroke-linecap="butt" d="m90.66929 306.96063l139.59055 -55.086624" fill-rule="nonzero"></path><path fill="#000000" fill-opacity="0.0" d="m90.66929 251.87138l139.59055 -55.08661" fill-rule="nonzero"></path><path stroke="#000000" stroke-width="1.0" stroke-linejoin="round" stroke-linecap="butt" d="m90.66929 251.87138l139.59055 -55.08661" fill-rule="nonzero"></path><path fill="#000000" fill-opacity="0.0" d="m90.66929 196.78215l139.59055 -55.08661" fill-rule="nonzero"></path><path stroke="#000000" stroke-width="1.0" stroke-linejoin="round" stroke-linecap="butt" d="m90.66929 196.78215l139.59055 -55.08661" fill-rule="nonzero"></path><path fill="#000000" fill-opacity="0.0" d="m90.66929 86.603676l139.59055 110.173225" fill-rule="nonzero"></path><path stroke="#000000" stroke-width="1.0" stroke-linejoin="round" stroke-linecap="butt" d="m90.66929 86.603676l139.59055 110.173225" fill-rule="nonzero"></path><path fill="#000000" fill-opacity="0.0" d="m90.656166 141.69554l139.59055 110.17322" fill-rule="nonzero"></path><path stroke="#000000" stroke-width="1.0" stroke-linejoin="round" stroke-linecap="butt" d="m90.656166 141.69554l139.59055 110.17322" fill-rule="nonzero"></path><path fill="#000000" fill-opacity="0.0" d="m90.656166 196.78477l139.59055 110.17323" fill-rule="nonzero"></path><path stroke="#000000" stroke-width="1.0" stroke-linejoin="round" stroke-linecap="butt" d="m90.656166 196.78477l139.59055 110.17323" fill-rule="nonzero"></path><path fill="#000000" fill-opacity="0.0" d="m90.66929 362.04987l139.59055 -110.17322" fill-rule="nonzero"></path><path stroke="#000000" stroke-width="1.0" stroke-linejoin="round" stroke-linecap="butt" d="m90.66929 362.04987l139.59055 -110.17322" fill-rule="nonzero"></path><path fill="#000000" fill-opacity="0.0" d="m90.656166 306.958l139.59055 -110.17323" fill-rule="nonzero"></path><path stroke="#000000" stroke-width="1.0" stroke-linejoin="round" stroke-linecap="butt" d="m90.656166 306.958l139.59055 -110.17323" fill-rule="nonzero"></path><path fill="#000000" fill-opacity="0.0" d="m90.66929 251.87138l139.59055 -110.17322" fill-rule="nonzero"></path><path stroke="#000000" stroke-width="1.0" stroke-linejoin="round" stroke-linecap="butt" d="m90.66929 251.87138l139.59055 -110.17322" fill-rule="nonzero"></path><path fill="#000000" fill-opacity="0.0" d="m90.656166 141.69292l139.59055 0" fill-rule="nonzero"></path><path stroke="#000000" stroke-width="1.0" stroke-linejoin="round" stroke-linecap="butt" d="m90.656166 141.69292l139.59055 0" fill-rule="nonzero"></path><path fill="#000000" fill-opacity="0.0" d="m90.656166 196.39633l139.59055 0" fill-rule="nonzero"></path><path stroke="#000000" stroke-width="1.0" stroke-linejoin="round" stroke-linecap="butt" d="m90.656166 196.39633l139.59055 0" fill-rule="nonzero"></path><path fill="#000000" fill-opacity="0.0" d="m90.66929 251.87138l139.59055 0" fill-rule="nonzero"></path><path stroke="#000000" stroke-width="1.0" stroke-linejoin="round" stroke-linecap="butt" d="m90.66929 251.87138l139.59055 0" fill-rule="nonzero"></path><path fill="#000000" fill-opacity="0.0" d="m90.66929 306.96063l139.59055 0" fill-rule="nonzero"></path><path stroke="#000000" stroke-width="1.0" stroke-linejoin="round" stroke-linecap="butt" d="m90.66929 306.96063l139.59055 0" fill-rule="nonzero"></path><path fill="#000000" fill-opacity="0.0" d="m90.656166 362.042l139.59055 -165.25984" fill-rule="nonzero"></path><path stroke="#000000" stroke-width="1.0" stroke-linejoin="round" stroke-linecap="butt" d="m90.656166 362.042l139.59055 -165.25984" fill-rule="nonzero"></path><path fill="#000000" fill-opacity="0.0" d="m90.656166 306.9567l139.59055 -165.25984" fill-rule="nonzero"></path><path stroke="#000000" stroke-width="1.0" stroke-linejoin="round" stroke-linecap="butt" d="m90.656166 306.9567l139.59055 -165.25984" fill-rule="nonzero"></path><path fill="#000000" fill-opacity="0.0" d="m90.66929 362.04987l139.59055 -220.34645" fill-rule="nonzero"></path><path stroke="#000000" stroke-width="1.0" stroke-linejoin="round" stroke-linecap="butt" d="m90.66929 362.04987l139.59055 -220.34645" fill-rule="nonzero"></path><path fill="#000000" fill-opacity="0.0" d="m90.66929 141.69292l139.59055 165.25984" fill-rule="nonzero"></path><path stroke="#000000" stroke-width="1.0" stroke-linejoin="round" stroke-linecap="butt" d="m90.66929 141.69292l139.59055 165.25984" fill-rule="nonzero"></path><path fill="#000000" fill-opacity="0.0" d="m90.66929 86.603676l139.59055 165.25983" fill-rule="nonzero"></path><path stroke="#000000" stroke-width="1.0" stroke-linejoin="round" stroke-linecap="butt" d="m90.66929 86.603676l139.59055 165.25983" fill-rule="nonzero"></path><path fill="#000000" fill-opacity="0.0" d="m90.66929 86.603676l139.59055 220.34647" fill-rule="nonzero"></path><path stroke="#000000" stroke-width="1.0" stroke-linejoin="round" stroke-linecap="butt" d="m90.66929 86.603676l139.59055 220.34647" fill-rule="nonzero"></path><path fill="#000000" fill-opacity="0.0" d="m409.1811 166.31233l-137.32281 140.66142" fill-rule="nonzero"></path><path stroke="#000000" stroke-width="1.0" stroke-linejoin="round" stroke-linecap="butt" d="m409.1811 166.31233l-137.32281 140.66142" fill-rule="nonzero"></path><path fill="#000000" fill-opacity="0.0" d="m409.18634 282.33334l-137.32281 -30.456696" fill-rule="nonzero"></path><path stroke="#000000" stroke-width="1.0" stroke-linejoin="round" stroke-linecap="butt" d="m409.18634 282.33334l-137.32281 -30.456696" fill-rule="nonzero"></path><path fill="#000000" fill-opacity="0.0" d="m409.1811 224.32283l-137.32281 -27.527557" fill-rule="nonzero"></path><path stroke="#000000" stroke-width="1.0" stroke-linejoin="round" stroke-linecap="butt" d="m409.1811 224.32283l-137.32281 -27.527557" fill-rule="nonzero"></path><path fill="#000000" fill-opacity="0.0" d="m409.1811 224.32283l-137.32281 82.645676" fill-rule="nonzero"></path><path stroke="#000000" stroke-width="1.0" stroke-linejoin="round" stroke-linecap="butt" d="m409.1811 224.32283l-137.32281 82.645676" fill-rule="nonzero"></path><path fill="#000000" fill-opacity="0.0" d="m409.1811 166.31233l-137.32281 85.574814" fill-rule="nonzero"></path><path stroke="#000000" stroke-width="1.0" stroke-linejoin="round" stroke-linecap="butt" d="m409.1811 166.31233l-137.32281 85.574814" fill-rule="nonzero"></path><path fill="#000000" fill-opacity="0.0" d="m409.18634 282.33334l-137.32281 -85.54332" fill-rule="nonzero"></path><path stroke="#000000" stroke-width="1.0" stroke-linejoin="round" stroke-linecap="butt" d="m409.18634 282.33334l-137.32281 -85.54332" fill-rule="nonzero"></path><path fill="#000000" fill-opacity="0.0" d="m409.1811 224.32283l-137.32281 -82.64566" fill-rule="nonzero"></path><path stroke="#000000" stroke-width="1.0" stroke-linejoin="round" stroke-linecap="butt" d="m409.1811 224.32283l-137.32281 -82.64566" fill-rule="nonzero"></path><path fill="#000000" fill-opacity="0.0" d="m409.18634 282.33334l-137.32281 24.629913" fill-rule="nonzero"></path><path stroke="#000000" stroke-width="1.0" stroke-linejoin="round" stroke-linecap="butt" d="m409.18634 282.33334l-137.32281 24.629913" fill-rule="nonzero"></path><path fill="#000000" fill-opacity="0.0" d="m409.1811 224.32283l-137.32281 27.559067" fill-rule="nonzero"></path><path stroke="#000000" stroke-width="1.0" stroke-linejoin="round" stroke-linecap="butt" d="m409.1811 224.32283l-137.32281 27.559067" fill-rule="nonzero"></path><path fill="#000000" fill-opacity="0.0" d="m409.18634 282.33334l-137.32281 -140.62993" fill-rule="nonzero"></path><path stroke="#000000" stroke-width="1.0" stroke-linejoin="round" stroke-linecap="butt" d="m409.18634 282.33334l-137.32281 -140.62993" fill-rule="nonzero"></path><path fill="#000000" fill-opacity="0.0" d="m409.1811 166.31233l-137.32281 30.456696" fill-rule="nonzero"></path><path stroke="#000000" stroke-width="1.0" stroke-linejoin="round" stroke-linecap="butt" d="m409.1811 166.31233l-137.32281 30.456696" fill-rule="nonzero"></path><path fill="#000000" fill-opacity="0.0" d="m409.1811 166.31233l-137.32281 -24.629913" fill-rule="nonzero"></path><path stroke="#000000" stroke-width="1.0" stroke-linejoin="round" stroke-linecap="butt" d="m409.1811 166.31233l-137.32281 -24.629913" fill-rule="nonzero"></path><path fill="#000000" fill-opacity="0.0" d="m27.677166 5.671916l84.377945 0l0 30.645668l-84.377945 0z" fill-rule="nonzero"></path><path fill="#000000" d="m51.74237 22.966915l0 9.625l-1.6875 0l0 -9.625l1.6875 0zm0.375 -3.015625q0 0.25 -0.09375 0.46875q-0.09375 0.203125 -0.265625 0.375q-0.171875 0.15625 -0.390625 0.25q-0.21875 0.09375 -0.453125 0.09375q-0.25 0 -0.46875 -0.09375q-0.21875 -0.09375 -0.390625 -0.25q-0.15625 -0.171875 -0.25 -0.375q-0.09375 -0.21875 -0.09375 -0.46875q0 -0.25 0.09375 -0.46875q0.09375 -0.234375 0.25 -0.390625q0.171875 -0.171875 0.390625 -0.265625q0.21875 -0.09375 0.46875 -0.09375q0.234375 0 0.453125 0.09375q0.21875 0.09375 0.390625 0.265625q0.171875 0.15625 0.265625 0.390625q0.09375 0.21875 0.09375 0.46875zm2.526001 12.640625l0 -9.625l1.0 0q0.359375 0 0.453125 0.359375l0.140625 1.03125q0.625 -0.6875 1.390625 -1.109375q0.78125 -0.4375 1.796875 -0.4375q0.796875 0 1.390625 0.265625q0.609375 0.265625 1.015625 0.75q0.40625 0.46875 0.609375 1.15625q0.203125 0.671875 0.203125 1.484375l0 6.125l-1.6875 0l0 -6.125q0 -1.09375 -0.5 -1.6875q-0.5 -0.609375 -1.515625 -0.609375q-0.75 0 -1.40625 0.359375q-0.65625 0.359375 -1.203125 0.96875l0 7.09375l-1.6875 0zm10.372879 3.265625l0 -12.890625l1.0 0q0.359375 0 0.453125 0.359375l0.15625 1.140625q0.609375 -0.75 1.40625 -1.203125q0.796875 -0.46875 1.828125 -0.46875q0.828125 0 1.5 0.328125q0.671875 0.3125 1.140625 0.9375q0.484375 0.625 0.734375 1.546875q0.265625 0.90625 0.265625 2.109375q0 1.0625 -0.296875 1.984375q-0.28125 0.921875 -0.8125 1.59375q-0.53125 0.65625 -1.3125 1.046875q-0.765625 0.390625 -1.734375 0.390625q-0.890625 0 -1.53125 -0.296875q-0.625 -0.296875 -1.109375 -0.84375l0 4.265625l-1.6875 0zm4.28125 -11.6875q-0.828125 0 -1.453125 0.375q-0.625 0.375 -1.140625 1.078125l0 4.65625q0.46875 0.625 1.015625 0.890625q0.5625 0.25 1.25 0.25q1.328125 0 2.046875 -0.953125q0.734375 -0.96875 0.734375 -2.75q0 -0.9375 -0.171875 -1.609375q-0.15625 -0.671875 -0.484375 -1.109375q-0.3125 -0.4375 -0.765625 -0.625q-0.453125 -0.203125 -1.03125 -0.203125zm7.4701233 -1.203125l0 6.140625q0 1.09375 0.5 1.6875q0.515625 0.59375 1.53125 0.59375q0.734375 0 1.390625 -0.34375q0.65625 -0.359375 1.203125 -0.984375l0 -7.09375l1.703125 0l0 9.625l-1.015625 0q-0.359375 0 -0.453125 -0.34375l-0.125 -1.046875q-0.640625 0.703125 -1.421875 1.125q-0.765625 0.421875 -1.78125 0.421875q-0.78125 0 -1.390625 -0.265625q-0.59375 -0.265625 -1.015625 -0.734375q-0.40625 -0.484375 -0.609375 -1.15625q-0.203125 -0.671875 -0.203125 -1.484375l0 -6.140625l1.6875 0zm11.826004 9.78125q-1.140625 0 -1.75 -0.640625q-0.609375 -0.640625 -0.609375 -1.828125l0 -5.890625l-1.15625 0q-0.15625 0 -0.265625 -0.09375q-0.09375 -0.09375 -0.09375 -0.28125l0 -0.671875l1.578125 -0.203125l0.390625 -2.96875q0.015625 -0.140625 0.109375 -0.234375q0.109375 -0.09375 0.28125 -0.09375l0.84375 0l0 3.3125l2.765625 0l0 1.234375l-2.765625 0l0 5.765625q0 0.609375 0.296875 0.90625q0.296875 0.296875 0.765625 0.296875q0.265625 0 0.453125 -0.0625q0.203125 -0.078125 0.34375 -0.15625q0.140625 -0.09375 0.234375 -0.15625q0.109375 -0.078125 0.1875 -0.078125q0.125 0 0.234375 0.15625l0.484375 0.8125q-0.4375 0.40625 -1.0625 0.640625q-0.609375 0.234375 -1.265625 0.234375z" fill-rule="nonzero"></path><path fill="#000000" d="m62.64904 48.623165q0 2.03125 0.515625 3.953125q0.53125 1.90625 1.515625 3.640625q0.046875 0.109375 0.0625 0.171875q0.03125 0.078125 0.03125 0.15625q0 0.140625 -0.078125 0.21875q-0.0625 0.09375 -0.15625 0.15625l-0.75 0.453125q-0.71875 -1.09375 -1.21875 -2.171875q-0.5 -1.0625 -0.8125 -2.140625q-0.296875 -1.09375 -0.453125 -2.1875q-0.140625 -1.09375 -0.140625 -2.25q0 -1.15625 0.140625 -2.25q0.15625 -1.109375 0.453125 -2.1875q0.3125 -1.078125 0.8125 -2.140625q0.5 -1.078125 1.21875 -2.1875l0.75 0.46875q0.09375 0.0625 0.15625 0.15625q0.078125 0.078125 0.078125 0.203125q0 0.15625 -0.09375 0.328125q-1.0 1.734375 -1.515625 3.65625q-0.515625 1.90625 -0.515625 3.953125z" fill-rule="nonzero"></path><path fill="#000000" d="m68.91779 49.42004l-2.3125 -4.453125l1.515625 0q0.1875 0 0.265625 0.0625q0.078125 0.046875 0.15625 0.171875l1.609375 3.3125q0.046875 -0.109375 0.09375 -0.203125q0.0625 -0.09375 0.140625 -0.203125l2.171875 -2.875q0.09375 -0.125 0.171875 -0.1875q0.09375 -0.078125 0.21875 -0.078125l1.53125 0l-3.4375 4.453125l2.5625 5.171875l-1.5 0q-0.203125 0 -0.3125 -0.09375q-0.09375 -0.109375 -0.15625 -0.234375l-1.8125 -3.859375q-0.09375 0.21875 -0.203125 0.375l-2.625 3.484375q-0.09375 0.140625 -0.21875 0.234375q-0.109375 0.09375 -0.28125 0.09375l-1.46875 0l3.890625 -5.171875z" fill-rule="nonzero"></path><path fill="#000000" d="m77.06449 48.623165q0 -2.046875 -0.515625 -3.953125q-0.515625 -1.921875 -1.515625 -3.65625q-0.09375 -0.171875 -0.09375 -0.328125q0 -0.125 0.0625 -0.203125q0.078125 -0.09375 0.171875 -0.15625l0.75 -0.46875q0.71875 1.109375 1.21875 2.1875q0.5 1.0625 0.796875 2.140625q0.3125 1.078125 0.453125 2.1875q0.140625 1.09375 0.140625 2.25q0 1.15625 -0.140625 2.25q-0.140625 1.09375 -0.453125 2.1875q-0.296875 1.078125 -0.796875 2.140625q-0.5 1.078125 -1.21875 2.171875l-0.75 -0.453125q-0.09375 -0.0625 -0.171875 -0.15625q-0.0625 -0.078125 -0.0625 -0.21875q0 -0.078125 0.015625 -0.15625q0.015625 -0.0625 0.078125 -0.171875q0.984375 -1.734375 1.5 -3.640625q0.53125 -1.921875 0.53125 -3.953125z" fill-rule="nonzero"></path><path fill="#000000" fill-opacity="0.0" d="m209.55774 5.6692915l84.37796 0l0 30.645668l-84.37796 0z" fill-rule="nonzero"></path><path fill="#000000" d="m225.05968 32.58929l0 -14.000002l1.6875 0l0 5.671875q0.625 -0.65625 1.375 -1.046875q0.75 -0.40625 1.71875 -0.40625q0.796875 0 1.390625 0.265625q0.609375 0.265625 1.015625 0.75q0.40625 0.46875 0.609375 1.15625q0.203125 0.671875 0.203125 1.484375l0 6.125002l-1.6875 0l0 -6.125002q0 -1.09375 -0.5 -1.6875q-0.5 -0.609375 -1.515625 -0.609375q-0.75 0 -1.40625 0.359375q-0.65625 0.359375 -1.203125 0.96875l0 7.093752l-1.6875 0zm12.247879 -9.625002l0 9.625002l-1.6875 0l0 -9.625002l1.6875 0zm0.375 -3.015625q0 0.25 -0.09375 0.46875q-0.09375 0.203125 -0.265625 0.375q-0.171875 0.15625 -0.390625 0.25q-0.21875 0.09375 -0.453125 0.09375q-0.25 0 -0.46875 -0.09375q-0.21875 -0.09375 -0.390625 -0.25q-0.15625 -0.171875 -0.25 -0.375q-0.09375 -0.21875 -0.09375 -0.46875q0 -0.25 0.09375 -0.46875q0.09375 -0.234375 0.25 -0.390625q0.171875 -0.171875 0.390625 -0.265625q0.21875 -0.09375 0.46875 -0.09375q0.234375 0 0.453125 0.09375q0.21875 0.09375 0.390625 0.265625q0.171875 0.15625 0.265625 0.390625q0.09375 0.21875 0.09375 0.46875zm9.291626 12.640627q-0.359375 0 -0.453125 -0.34375l-0.15625 -1.1718769q-0.609375 0.75 -1.40625 1.2031269q-0.796875 0.453125 -1.8125 0.453125q-0.828125 0 -1.515625 -0.3125q-0.671875 -0.328125 -1.140625 -0.9375019q-0.46875 -0.625 -0.734375 -1.546875q-0.25 -0.921875 -0.25 -2.125q0 -1.0625 0.28125 -1.96875q0.28125 -0.921875 0.8125 -1.59375q0.546875 -0.6875 1.3125 -1.0625q0.765625 -0.390625 1.75 -0.390625q0.890625 0 1.515625 0.296875q0.625 0.296875 1.109375 0.84375l0 -5.34375l1.703125 0l0 14.000002l-1.015625 0zm-3.265625 -1.2343769q0.8125 0 1.4375 -0.375q0.625 -0.390625 1.140625 -1.078125l0 -4.65625q-0.453125 -0.625 -1.015625 -0.875q-0.546875 -0.25 -1.234375 -0.25q-1.34375 0 -2.0625 0.953125q-0.71875 0.953125 -0.71875 2.734375q0 0.9375 0.15625 1.609375q0.15625 0.671875 0.46875 1.109375q0.3125 0.421875 0.765625 0.625q0.46875 0.203125 1.0625 0.203125zm13.694458 1.2343769q-0.359375 0 -0.453125 -0.34375l-0.15625 -1.1718769q-0.609375 0.75 -1.4062347 1.2031269q-0.796875 0.453125 -1.8125 0.453125q-0.828125 0 -1.515625 -0.3125q-0.671875 -0.328125 -1.140625 -0.9375019q-0.46875 -0.625 -0.734375 -1.546875q-0.25 -0.921875 -0.25 -2.125q0 -1.0625 0.28125 -1.96875q0.28125 -0.921875 0.8125 -1.59375q0.546875 -0.6875 1.3125 -1.0625q0.765625 -0.390625 1.75 -0.390625q0.890625 0 1.515625 0.296875q0.62498474 0.296875 1.1093597 0.84375l0 -5.34375l1.703125 0l0 14.000002l-1.015625 0zm-3.2656097 -1.2343769q0.8125 0 1.4375 -0.375q0.62498474 -0.390625 1.1406097 -1.078125l0 -4.65625q-0.453125 -0.625 -1.0156097 -0.875q-0.546875 -0.25 -1.234375 -0.25q-1.34375 0 -2.0625 0.953125q-0.71875 0.953125 -0.71875 2.734375q0 0.9375 0.15625 1.609375q0.15625 0.671875 0.46875 1.109375q0.3125 0.421875 0.765625 0.625q0.46875 0.203125 1.0625 0.203125zm10.741348 -8.546875q0.859375 0 1.59375 0.296875q0.734375 0.28125 1.265625 0.828125q0.53125 0.546875 0.828125 1.359375q0.296875 0.796875 0.296875 1.828125q0 0.390625 -0.09375 0.53125q-0.078125 0.125 -0.3125 0.125l-6.40625 0q0.015625 0.921875 0.234375 1.59375q0.234375 0.671875 0.625 1.125q0.40625 0.453125 0.953125 0.671875q0.5625 0.21875 1.25 0.21875q0.640625 0 1.09375 -0.140625q0.453125 -0.140625 0.78125 -0.3125q0.34375 -0.171875 0.5625 -0.3125q0.234375 -0.15625 0.390625 -0.15625q0.203125 0 0.328125 0.15625l0.46875 0.625q-0.3125 0.375 -0.75 0.65625q-0.4375 0.2812519 -0.9375 0.4687519q-0.5 0.171875 -1.03125 0.265625q-0.53125 0.09375 -1.046875 0.09375q-1.0 0 -1.84375 -0.34375q-0.84375 -0.34375 -1.453125 -0.9843769q-0.609375 -0.65625 -0.953125 -1.609375q-0.34375 -0.96875 -0.34375 -2.203125q0 -1.015625 0.3125 -1.890625q0.3125 -0.875 0.890625 -1.515625q0.578125 -0.640625 1.40625 -1.0q0.84375 -0.375 1.890625 -0.375zm0.03125 1.25q-1.21875 0 -1.921875 0.71875q-0.703125 0.703125 -0.875 1.953125l5.234375 0q0 -0.59375 -0.171875 -1.078125q-0.15625 -0.484375 -0.46875 -0.84375q-0.3125 -0.359375 -0.765625 -0.546875q-0.453125 -0.203125 -1.03125 -0.203125zm5.932129 8.531252l0 -9.625002l1.0 0q0.359375 0 0.453125 0.359375l0.140625 1.03125q0.625 -0.6875 1.390625 -1.109375q0.78125 -0.4375 1.796875 -0.4375q0.796875 0 1.390625 0.265625q0.609375 0.265625 1.015625 0.75q0.40625 0.46875 0.609375 1.15625q0.203125 0.671875 0.203125 1.484375l0 6.125002l-1.6875 0l0 -6.125002q0 -1.09375 -0.5 -1.6875q-0.5 -0.609375 -1.515625 -0.609375q-0.75 0 -1.40625 0.359375q-0.65625 0.359375 -1.203125 0.96875l0 7.093752l-1.6875 0z" fill-rule="nonzero"></path><path fill="#000000" d="m244.89807 48.62054q0 2.03125 0.515625 3.953125q0.53125 1.90625 1.515625 3.640625q0.046875 0.109375 0.0625 0.171875q0.03125 0.078125 0.03125 0.15625q0 0.140625 -0.078125 0.21875q-0.0625 0.09375 -0.15625 0.15625l-0.75 0.453125q-0.71875 -1.09375 -1.21875 -2.171875q-0.5 -1.0625 -0.8125 -2.140625q-0.296875 -1.09375 -0.453125 -2.1875q-0.140625 -1.09375 -0.140625 -2.25q0 -1.15625 0.140625 -2.25q0.15625 -1.109375 0.453125 -2.1875q0.3125 -1.078125 0.8125 -2.140625q0.5 -1.078125 1.21875 -2.1875l0.75 0.46875q0.09375 0.0625 0.15625 0.15625q0.078125 0.078125 0.078125 0.203125q0 0.15625 -0.09375 0.328125q-1.0 1.734375 -1.515625 3.65625q-0.515625 1.90625 -0.515625 3.953125z" fill-rule="nonzero"></path><path fill="#000000" d="m255.80745 45.68304q-0.03125 0.1875 -0.125 0.359375q-0.078125 0.15625 -0.171875 0.296875l-5.546875 6.921875l4.75 0l-0.15625 1.328125l-6.78125 0l0.078125 -0.703125q0.03125 -0.125 0.109375 -0.28125q0.078125 -0.171875 0.1875 -0.328125l5.578125 -6.984375l-4.671875 0l0.15625 -1.328125l6.671875 0l-0.078125 0.71875z" fill-rule="nonzero"></path><path fill="#000000" d="m258.5766 48.62054q0 -2.046875 -0.515625 -3.953125q-0.515625 -1.921875 -1.515625 -3.65625q-0.09375 -0.171875 -0.09375 -0.328125q0 -0.125 0.0625 -0.203125q0.078125 -0.09375 0.171875 -0.15625l0.75 -0.46875q0.71875 1.109375 1.21875 2.1875q0.5 1.0625 0.796875 2.140625q0.3125 1.078125 0.453125 2.1875q0.140625 1.09375 0.140625 2.25q0 1.15625 -0.140625 2.25q-0.140625 1.09375 -0.453125 2.1875q-0.296875 1.078125 -0.796875 2.140625q-0.5 1.078125 -1.21875 2.171875l-0.75 -0.453125q-0.09375 -0.0625 -0.171875 -0.15625q-0.0625 -0.078125 -0.0625 -0.21875q0 -0.078125 0.015625 -0.15625q0.015625 -0.0625 0.078125 -0.171875q0.984375 -1.734375 1.5 -3.640625q0.53125 -1.921875 0.53125 -3.953125z" fill-rule="nonzero"></path><path fill="#000000" fill-opacity="0.0" d="m387.80054 5.671916l84.37793 0l0 30.645668l-84.37793 0z" fill-rule="nonzero"></path><path fill="#000000" d="m407.60352 22.810665q1.0625 0 1.90625 0.359375q0.84375 0.34375 1.4375 1.0q0.59375 0.640625 0.90625 1.5625q0.328125 0.90625 0.328125 2.046875q0 1.140625 -0.328125 2.046875q-0.3125 0.90625 -0.90625 1.5625q-0.59375 0.640625 -1.4375 1.0q-0.84375 0.34375 -1.90625 0.34375q-1.046875 0 -1.90625 -0.34375q-0.84375 -0.359375 -1.453125 -1.0q-0.59375 -0.65625 -0.921875 -1.5625q-0.3125 -0.90625 -0.3125 -2.046875q0 -1.140625 0.3125 -2.046875q0.328125 -0.921875 0.921875 -1.5625q0.609375 -0.65625 1.453125 -1.0q0.859375 -0.359375 1.90625 -0.359375zm0 8.59375q1.421875 0 2.125 -0.953125q0.703125 -0.953125 0.703125 -2.671875q0 -1.71875 -0.703125 -2.671875q-0.703125 -0.96875 -2.125 -0.96875q-0.71875 0 -1.25 0.25q-0.53125 0.25 -0.890625 0.71875q-0.359375 0.46875 -0.53125 1.15625q-0.171875 0.671875 -0.171875 1.515625q0 0.859375 0.171875 1.53125q0.171875 0.671875 0.53125 1.140625q0.359375 0.453125 0.890625 0.703125q0.53125 0.25 1.25 0.25zm7.9353943 -8.4375l0 6.140625q0 1.09375 0.5 1.6875q0.515625 0.59375 1.53125 0.59375q0.734375 0 1.390625 -0.34375q0.65625 -0.359375 1.203125 -0.984375l0 -7.09375l1.703125 0l0 9.625l-1.015625 0q-0.359375 0 -0.453125 -0.34375l-0.125 -1.046875q-0.640625 0.703125 -1.421875 1.125q-0.765625 0.421875 -1.78125 0.421875q-0.78125 0 -1.390625 -0.265625q-0.59375 -0.265625 -1.015625 -0.734375q-0.40625 -0.484375 -0.609375 -1.15625q-0.203125 -0.671875 -0.203125 -1.484375l0 -6.140625l1.6875 0zm11.825989 9.78125q-1.140625 0 -1.75 -0.640625q-0.609375 -0.640625 -0.609375 -1.828125l0 -5.890625l-1.15625 0q-0.15625 0 -0.265625 -0.09375q-0.09375 -0.09375 -0.09375 -0.28125l0 -0.671875l1.578125 -0.203125l0.390625 -2.96875q0.015625 -0.140625 0.109375 -0.234375q0.109375 -0.09375 0.28125 -0.09375l0.84375 0l0 3.3125l2.765625 0l0 1.234375l-2.765625 0l0 5.765625q0 0.609375 0.296875 0.90625q0.296875 0.296875 0.765625 0.296875q0.265625 0 0.453125 -0.0625q0.203125 -0.078125 0.34375 -0.15625q0.140625 -0.09375 0.234375 -0.15625q0.109375 -0.078125 0.1875 -0.078125q0.125 0 0.234375 0.15625l0.484375 0.8125q-0.4375 0.40625 -1.0625 0.640625q-0.609375 0.234375 -1.265625 0.234375zm4.0525513 3.109375l0 -12.890625l1.0 0q0.359375 0 0.453125 0.359375l0.15625 1.140625q0.609375 -0.75 1.40625 -1.203125q0.796875 -0.46875 1.828125 -0.46875q0.828125 0 1.5 0.328125q0.671875 0.3125 1.140625 0.9375q0.484375 0.625 0.734375 1.546875q0.265625 0.90625 0.265625 2.109375q0 1.0625 -0.296875 1.984375q-0.28125 0.921875 -0.8125 1.59375q-0.53125 0.65625 -1.3125 1.046875q-0.765625 0.390625 -1.734375 0.390625q-0.890625 0 -1.53125 -0.296875q-0.625 -0.296875 -1.109375 -0.84375l0 4.265625l-1.6875 0zm4.28125 -11.6875q-0.828125 0 -1.453125 0.375q-0.625 0.375 -1.140625 1.078125l0 4.65625q0.46875 0.625 1.015625 0.890625q0.5625 0.25 1.25 0.25q1.328125 0 2.046875 -0.953125q0.734375 -0.96875 0.734375 -2.75q0 -0.9375 -0.171875 -1.609375q-0.15625 -0.671875 -0.484375 -1.109375q-0.3125 -0.4375 -0.765625 -0.625q-0.453125 -0.203125 -1.03125 -0.203125zm7.4701233 -1.203125l0 6.140625q0 1.09375 0.5 1.6875q0.515625 0.59375 1.53125 0.59375q0.734375 0 1.390625 -0.34375q0.65625 -0.359375 1.203125 -0.984375l0 -7.09375l1.703125 0l0 9.625l-1.015625 0q-0.359375 0 -0.453125 -0.34375l-0.125 -1.046875q-0.640625 0.703125 -1.421875 1.125q-0.765625 0.421875 -1.78125 0.421875q-0.78125 0 -1.390625 -0.265625q-0.59375 -0.265625 -1.015625 -0.734375q-0.40625 -0.484375 -0.609375 -1.15625q-0.203125 -0.671875 -0.203125 -1.484375l0 -6.140625l1.6875 0zm11.825989 9.78125q-1.140625 0 -1.75 -0.640625q-0.609375 -0.640625 -0.609375 -1.828125l0 -5.890625l-1.15625 0q-0.15625 0 -0.265625 -0.09375q-0.09375 -0.09375 -0.09375 -0.28125l0 -0.671875l1.578125 -0.203125l0.390625 -2.96875q0.015625 -0.140625 0.109375 -0.234375q0.109375 -0.09375 0.28125 -0.09375l0.84375 0l0 3.3125l2.765625 0l0 1.234375l-2.765625 0l0 5.765625q0 0.609375 0.296875 0.90625q0.296875 0.296875 0.765625 0.296875q0.265625 0 0.453125 -0.0625q0.203125 -0.078125 0.34375 -0.15625q0.140625 -0.09375 0.234375 -0.15625q0.109375 -0.078125 0.1875 -0.078125q0.125 0 0.234375 0.15625l0.484375 0.8125q-0.4375 0.40625 -1.0625 0.640625q-0.609375 0.234375 -1.265625 0.234375z" fill-rule="nonzero"></path><path fill="#000000" d="m422.70242 48.623165q0 2.03125 0.515625 3.953125q0.53125 1.90625 1.515625 3.640625q0.046875 0.109375 0.0625 0.171875q0.03125 0.078125 0.03125 0.15625q0 0.140625 -0.078125 0.21875q-0.0625 0.09375 -0.15625 0.15625l-0.75 0.453125q-0.71875 -1.09375 -1.21875 -2.171875q-0.5 -1.0625 -0.8125 -2.140625q-0.296875 -1.09375 -0.453125 -2.1875q-0.140625 -1.09375 -0.140625 -2.25q0 -1.15625 0.140625 -2.25q0.15625 -1.109375 0.453125 -2.1875q0.3125 -1.078125 0.8125 -2.140625q0.5 -1.078125 1.21875 -2.1875l0.75 0.46875q0.09375 0.0625 0.15625 0.15625q0.078125 0.078125 0.078125 0.203125q0 0.15625 -0.09375 0.328125q-1.0 1.734375 -1.515625 3.65625q-0.515625 1.90625 -0.515625 3.953125z" fill-rule="nonzero"></path><path fill="#000000" d="m428.54932 57.466915q-0.203125 0.390625 -0.59375 0.390625l-1.234375 0l2.09375 -3.828125l-2.5 -9.0625l1.40625 0q0.1875 0 0.28125 0.109375q0.109375 0.09375 0.15625 0.25l1.546875 6.046875q0.046875 0.203125 0.0625 0.40625q0.03125 0.203125 0.0625 0.40625q0.078125 -0.203125 0.15625 -0.40625q0.078125 -0.203125 0.1875 -0.40625l3.046875 -6.078125q0.078125 -0.140625 0.203125 -0.234375q0.140625 -0.09375 0.28125 -0.09375l1.34375 0l-6.5 12.5z" fill-rule="nonzero"></path><path fill="#000000" d="m437.2578 48.623165q0 -2.046875 -0.515625 -3.953125q-0.515625 -1.921875 -1.515625 -3.65625q-0.09375 -0.171875 -0.09375 -0.328125q0 -0.125 0.0625 -0.203125q0.078125 -0.09375 0.171875 -0.15625l0.75 -0.46875q0.71875 1.109375 1.21875 2.1875q0.5 1.0625 0.796875 2.140625q0.3125 1.078125 0.453125 2.1875q0.140625 1.09375 0.140625 2.25q0 1.15625 -0.140625 2.25q-0.140625 1.09375 -0.453125 2.1875q-0.296875 1.078125 -0.796875 2.140625q-0.5 1.078125 -1.21875 2.171875l-0.75 -0.453125q-0.09375 -0.0625 -0.171875 -0.15625q-0.0625 -0.078125 -0.0625 -0.21875q0 -0.078125 0.015625 -0.15625q0.015625 -0.0625 0.078125 -0.171875q0.984375 -1.734375 1.5 -3.640625q0.53125 -1.921875 0.53125 -3.953125z" fill-rule="nonzero"></path><path fill="#000000" fill-opacity="0.0" d="m138.65617 73.43569l59.96849 0l0 30.645676l-59.96849 0z" fill-rule="nonzero"></path><path fill="#000000" d="m148.87492 86.746315l1.390625 0q0.234375 0 0.375 0.125q0.15625 0.109375 0.171875 0.296875l1.46875 9.640625q0.015625 0.125 0.03125 0.3125q0.015625 0.1875 0.03125 0.375q0.015625 0.203125 0.03125 0.421875q0.09375 -0.296875 0.1875 -0.578125q0.09375 -0.296875 0.203125 -0.53125l4.078125 -9.640625q0.078125 -0.15625 0.25 -0.28125q0.171875 -0.140625 0.390625 -0.140625l0.40625 0q0.25 0 0.390625 0.125q0.140625 0.109375 0.171875 0.296875l1.703125 9.640625q0.046875 0.234375 0.078125 0.515625q0.03125 0.28125 0.046875 0.578125q0.09375 -0.296875 0.171875 -0.578125q0.078125 -0.28125 0.1875 -0.515625l3.828125 -9.640625q0.0625 -0.15625 0.25 -0.28125q0.1875 -0.140625 0.40625 -0.140625l1.390625 0l-5.578125 13.609375l-1.609375 0l-1.84375 -10.484375q-0.03125 -0.140625 -0.0625 -0.3125q-0.015625 -0.1875 -0.03125 -0.390625q-0.0625 0.203125 -0.125 0.390625q-0.0625 0.171875 -0.125 0.3125l-4.421875 10.484375l-1.59375 0l-2.25 -13.609375z" fill-rule="nonzero"></path><path fill="#000000" d="m166.68047 106.558815l1.859375 0l0.734375 -6.03125l0.109375 -0.453125l-1.765625 1.375q-0.109375 0.078125 -0.21875 0.078125q-0.09375 0 -0.171875 -0.03125q-0.0625 -0.046875 -0.09375 -0.09375l-0.265625 -0.453125l2.8125 -2.203125l0.84375 0l-0.953125 7.8125l1.703125 0l-0.09375 0.796875l-4.59375 0l0.09375 -0.796875z" fill-rule="nonzero"></path><path fill="#000000" fill-opacity="0.0" d="m314.29398 111.031494l59.968506 0l0 30.645676l-59.968506 0z" fill-rule="nonzero"></path><path fill="#000000" d="m324.51273 124.34212l1.390625 0q0.234375 0 0.375 0.125q0.15625 0.109375 0.171875 0.296875l1.46875 9.640625q0.015625 0.125 0.03125 0.3125q0.015625 0.1875 0.03125 0.375q0.015625 0.203125 0.03125 0.421875q0.09375 -0.296875 0.1875 -0.578125q0.09375 -0.296875 0.203125 -0.53125l4.078125 -9.640625q0.078125 -0.15625 0.25 -0.28125q0.171875 -0.140625 0.390625 -0.140625l0.40625 0q0.25 0 0.390625 0.125q0.140625 0.109375 0.171875 0.296875l1.703125 9.640625q0.046875 0.234375 0.078125 0.515625q0.03125 0.28125 0.046875 0.578125q0.09375 -0.296875 0.171875 -0.578125q0.078125 -0.28125 0.1875 -0.515625l3.828125 -9.640625q0.0625 -0.15625 0.25 -0.28125q0.1875 -0.140625 0.40625 -0.140625l1.390625 0l-5.578125 13.609375l-1.609375 0l-1.84375 -10.484375q-0.03125 -0.140625 -0.0625 -0.3125q-0.015625 -0.1875 -0.03125 -0.390625q-0.0625 0.203125 -0.125 0.390625q-0.0625 0.171875 -0.125 0.3125l-4.421875 10.484375l-1.59375 0l-2.25 -13.609375z" fill-rule="nonzero"></path><path fill="#000000" d="m345.1464 136.26399q0.484375 0 0.90625 0.140625q0.4375 0.140625 0.734375 0.421875q0.3125 0.265625 0.484375 0.65625q0.171875 0.375 0.171875 0.875q0 0.546875 -0.171875 1.0q-0.171875 0.453125 -0.46875 0.859375q-0.296875 0.390625 -0.6875 0.765625q-0.390625 0.375 -0.84375 0.78125l-2.578125 2.359375q0.25 -0.078125 0.484375 -0.109375q0.25 -0.03125 0.484375 -0.03125l2.9375 0q0.15625 0 0.234375 0.09375q0.09375 0.078125 0.09375 0.203125q0 0.0625 -0.015625 0.171875q-0.015625 0.09375 -0.03125 0.1875l-0.03125 0.3125l-5.71875 0l0.046875 -0.359375q0.015625 -0.09375 0.0625 -0.21875q0.0625 -0.125 0.171875 -0.21875l3.109375 -2.78125q0.4375 -0.390625 0.78125 -0.734375q0.34375 -0.359375 0.578125 -0.703125q0.234375 -0.34375 0.359375 -0.703125q0.125 -0.359375 0.125 -0.765625q0 -0.328125 -0.109375 -0.578125q-0.109375 -0.25 -0.296875 -0.40625q-0.171875 -0.15625 -0.4375 -0.234375q-0.25 -0.09375 -0.546875 -0.09375q-0.671875 0 -1.140625 0.359375q-0.46875 0.34375 -0.703125 0.953125q-0.0625 0.171875 -0.171875 0.25q-0.09375 0.0625 -0.25 0.0625q-0.03125 0 -0.0625 0q-0.03125 0 -0.078125 -0.015625l-0.515625 -0.078125q0.140625 -0.59375 0.4375 -1.046875q0.296875 -0.453125 0.703125 -0.75q0.40625 -0.3125 0.890625 -0.46875q0.5 -0.15625 1.0625 -0.15625z" fill-rule="nonzero"></path></g></svg>

