<?xml version="1.0" standalone="yes"?>

<svg version="1.1" viewBox="0.0 0.0 133.0 259.0" fill="none" stroke="none" stroke-linecap="square" stroke-miterlimit="10" xmlns="http://www.w3.org/2000/svg" xmlns:xlink="http://www.w3.org/1999/xlink"><clipPath id="p.0"><path d="m0 0l133.0 0l0 259.0l-133.0 0l0 -259.0z" clip-rule="nonzero"></path></clipPath><g clip-path="url(#p.0)"><path fill="#000000" fill-opacity="0.0" d="m0 0l133.0 0l0 259.0l-133.0 0z" fill-rule="nonzero"></path><path fill="#0194d3" d="m49.062992 213.10236l0 0c0 -11.489258 9.313889 -20.803146 20.80315 -20.803146l0 0c5.517334 0 10.808701 2.1917572 14.710045 6.093109c3.901352 3.9013367 6.0931015 9.192703 6.0931015 14.710037l0 0c0 11.489273 -9.313881 20.803162 -20.803146 20.803162l0 0c-11.489262 0 -20.80315 -9.313889 -20.80315 -20.803162z" fill-rule="nonzero"></path><path stroke="#000000" stroke-width="1.0" stroke-linejoin="round" stroke-linecap="butt" d="m49.062992 213.10236l0 0c0 -11.489258 9.313889 -20.803146 20.80315 -20.803146l0 0c5.517334 0 10.808701 2.1917572 14.710045 6.093109c3.901352 3.9013367 6.0931015 9.192703 6.0931015 14.710037l0 0c0 11.489273 -9.313881 20.803162 -20.803146 20.803162l0 0c-11.489262 0 -20.80315 -9.313889 -20.80315 -20.803162z" fill-rule="nonzero"></path><path fill="#49dea4" d="m49.062992 126.5l0 0c0 -11.489265 9.313889 -20.803146 20.80315 -20.803146l0 0c5.517334 0 10.808701 2.1917496 14.710045 6.0931015c3.901352 3.9013443 6.0931015 9.192703 6.0931015 14.710045l0 0c0 11.489258 -9.313881 20.803146 -20.803146 20.803146l0 0c-11.489262 0 -20.80315 -9.313889 -20.80315 -20.803146z" fill-rule="nonzero"></path><path stroke="#000000" stroke-width="1.0" stroke-linejoin="round" stroke-linecap="butt" d="m49.062992 126.5l0 0c0 -11.489265 9.313889 -20.803146 20.80315 -20.803146l0 0c5.517334 0 10.808701 2.1917496 14.710045 6.0931015c3.901352 3.9013443 6.0931015 9.192703 6.0931015 14.710045l0 0c0 11.489258 -9.313881 20.803146 -20.803146 20.803146l0 0c-11.489262 0 -20.80315 -9.313889 -20.80315 -20.803146z" fill-rule="nonzero"></path><path fill="#ffc425" d="m49.062992 46.839893l0 0c0 -11.489262 9.313889 -20.803148 20.80315 -20.803148l0 0c5.517334 0 10.808701 2.1917553 14.710045 6.0931034c3.901352 3.9013443 6.0931015 9.192707 6.0931015 14.710045l0 0c0 11.489265 -9.313881 20.80315 -20.803146 20.80315l0 0c-11.489262 0 -20.80315 -9.313885 -20.80315 -20.80315z" fill-rule="nonzero"></path><path stroke="#000000" stroke-width="1.0" stroke-linejoin="round" stroke-linecap="butt" d="m49.062992 46.839893l0 0c0 -11.489262 9.313889 -20.803148 20.80315 -20.803148l0 0c5.517334 0 10.808701 2.1917553 14.710045 6.0931034c3.901352 3.9013443 6.0931015 9.192707 6.0931015 14.710045l0 0c0 11.489265 -9.313881 20.80315 -20.803146 20.80315l0 0c-11.489262 0 -20.80315 -9.313885 -20.80315 -20.80315z" fill-rule="nonzero"></path><path fill="#000000" fill-opacity="0.0" d="m69.86614 192.29921l0 -45.007874" fill-rule="nonzero"></path><path stroke="#000000" stroke-width="1.0" stroke-linejoin="round" stroke-linecap="butt" d="m69.86614 192.29921l0 -41.580795" fill-rule="evenodd"></path><path fill="#000000" stroke="#000000" stroke-width="1.0" stroke-linecap="butt" d="m69.86614 150.71843l1.1245804 1.1245728l-1.1245804 -3.0897675l-1.1245804 3.0897675z" fill-rule="evenodd"></path><path fill="#000000" fill-opacity="0.0" d="m69.86614 105.69685l0 -38.04725" fill-rule="nonzero"></path><path stroke="#000000" stroke-width="1.0" stroke-linejoin="round" stroke-linecap="butt" d="m69.86614 105.69685l0 -34.620155" fill-rule="evenodd"></path><path fill="#000000" stroke="#000000" stroke-width="1.0" stroke-linecap="butt" d="m69.86614 71.07669l1.1245804 1.124588l-1.1245804 -3.0897675l-1.1245804 3.0897675z" fill-rule="evenodd"></path><path fill="#000000" fill-opacity="0.0" d="m17.19685 192.29921l31.338585 0l0 32.409454l-31.338585 0z" fill-rule="nonzero"></path><path fill="#000000" d="m30.94685 211.95358l-3.203125 -6.34375l1.609375 0q0.203125 0 0.28125 0.0625q0.09375 0.0625 0.15625 0.203125l2.421875 5.125q0.09375 -0.171875 0.21875 -0.34375l3.453125 -4.78125q0.109375 -0.125 0.203125 -0.1875q0.109375 -0.078125 0.25 -0.078125l1.828125 0l-4.765625 6.265625l3.59375 7.34375l-1.59375 0q-0.1875 0 -0.296875 -0.109375q-0.109375 -0.109375 -0.171875 -0.234375l-2.765625 -5.9375q-0.078125 0.15625 -0.171875 0.28125l-4.09375 5.65625q-0.25 0.34375 -0.59375 0.34375l-1.78125 0l5.421875 -7.265625z" fill-rule="nonzero"></path><path fill="#000000" fill-opacity="0.0" d="m20.677166 22.018373l31.338581 0l0 32.409447l-31.338581 0z" fill-rule="nonzero"></path><path fill="#000000" d="m36.19279 43.50087l-0.671875 5.4375l-1.78125 0l0.671875 -5.421875l-3.578125 -8.1875l1.5625 0q0.25 0 0.375 0.125q0.125 0.109375 0.1875 0.28125l2.265625 5.453125q0.09375 0.28125 0.15625 0.53125q0.078125 0.25 0.125 0.5q0.109375 -0.25 0.25 -0.5q0.140625 -0.25 0.296875 -0.53125l3.625 -5.453125q0.09375 -0.140625 0.25 -0.265625q0.15625 -0.140625 0.390625 -0.140625l1.46875 0l-5.59375 8.171875z" fill-rule="nonzero"></path><path fill="#000000" fill-opacity="0.0" d="m17.19685 110.296585l31.338585 0l0 32.409454l-31.338585 0z" fill-rule="nonzero"></path><path fill="#000000" d="m37.556225 123.60721l-0.078125 0.5625q-0.03125 0.140625 -0.09375 0.25q-0.046875 0.109375 -0.125 0.21875l-8.328125 11.140625l7.015625 0l-0.1875 1.4375l-9.40625 0l0.078125 -0.5625q0.015625 -0.125 0.0625 -0.234375q0.046875 -0.109375 0.140625 -0.21875l8.328125 -11.140625l-6.78125 0l0.1875 -1.453125l9.1875 0z" fill-rule="nonzero"></path></g></svg>

