<?xml version="1.0" standalone="yes"?>

<svg version="1.1" viewBox="0.0 0.0 174.0 406.0" fill="none" stroke="none" stroke-linecap="square" stroke-miterlimit="10" xmlns="http://www.w3.org/2000/svg" xmlns:xlink="http://www.w3.org/1999/xlink"><clipPath id="p.0"><path d="m0 0l174.0 0l0 406.0l-174.0 0l0 -406.0z" clip-rule="nonzero"></path></clipPath><g clip-path="url(#p.0)"><path fill="#000000" fill-opacity="0.0" d="m0 0l174.0 0l0 406.0l-174.0 0z" fill-rule="nonzero"></path><path fill="#49dea4" d="m58.85827 240.19423l0 0c0 -11.489273 9.313889 -20.803146 20.803146 -20.803146l0 0c5.5173416 0 10.808701 2.191742 14.7100525 6.093094c3.9013443 3.901352 6.0931015 9.192703 6.0931015 14.7100525l0 0c0 11.489258 -9.313889 20.803146 -20.803154 20.803146l0 0c-11.489258 0 -20.803146 -9.313889 -20.803146 -20.803146z" fill-rule="nonzero"></path><path stroke="#000000" stroke-width="1.0" stroke-linejoin="round" stroke-linecap="butt" d="m58.85827 240.19423l0 0c0 -11.489273 9.313889 -20.803146 20.803146 -20.803146l0 0c5.5173416 0 10.808701 2.191742 14.7100525 6.093094c3.9013443 3.901352 6.0931015 9.192703 6.0931015 14.7100525l0 0c0 11.489258 -9.313889 20.803146 -20.803154 20.803146l0 0c-11.489258 0 -20.803146 -9.313889 -20.803146 -20.803146z" fill-rule="nonzero"></path><path fill="#000000" fill-opacity="0.0" d="m79.661415 127.391075l0 -50.267715" fill-rule="nonzero"></path><path stroke="#000000" stroke-width="1.0" stroke-linejoin="round" stroke-linecap="butt" d="m79.661415 127.391075l0 -46.84063" fill-rule="evenodd"></path><path fill="#000000" stroke="#000000" stroke-width="1.0" stroke-linecap="butt" d="m79.661415 80.550446l1.124588 1.1245804l-1.124588 -3.0897675l-1.1245804 3.0897675z" fill-rule="evenodd"></path><path fill="#000000" fill-opacity="0.0" d="m26.963255 288.25198l41.6063 0l0 32.409424l-41.6063 0z" fill-rule="nonzero"></path><path fill="#000000" d="m40.713253 307.90634l-3.203125 -6.34375l1.609375 0q0.203125 0 0.28125 0.0625q0.09375 0.0625 0.15625 0.203125l2.421875 5.125q0.09375 -0.171875 0.21875 -0.34375l3.453125 -4.78125q0.109375 -0.125 0.203125 -0.1875q0.109375 -0.078125 0.25 -0.078125l1.828125 0l-4.765625 6.265625l3.59375 7.34375l-1.59375 0q-0.1875 0 -0.296875 -0.109375q-0.109375 -0.109375 -0.171875 -0.234375l-2.765625 -5.9375q-0.078125 0.15625 -0.171875 0.28125l-4.09375 5.65625q-0.25 0.34375 -0.59375 0.34375l-1.78125 0l5.421875 -7.265625z" fill-rule="nonzero"></path><path fill="#000000" d="m48.035503 321.03134q0 -0.046875 0 -0.09375q0 -0.0625 0.015625 -0.171875q0.015625 -0.109375 0.03125 -0.28125q0.015625 -0.171875 0.046875 -0.453125l0.375 -3.046875l-0.671875 0q-0.078125 0 -0.140625 -0.046875q-0.046875 -0.046875 -0.046875 -0.140625q0 -0.015625 0 -0.0625q0.015625 -0.0625 0.015625 -0.125q0.015625 -0.078125 0.03125 -0.140625q0.015625 -0.078125 0.015625 -0.140625l0.9375 -0.125l0.453125 -1.875q0.015625 -0.09375 0.078125 -0.140625q0.078125 -0.0625 0.171875 -0.0625l0.5625 0l-0.265625 2.09375l1.59375 0l-0.09375 0.765625l-1.59375 0l-0.375 2.984375q-0.03125 0.25 -0.046875 0.40625q0 0.140625 -0.015625 0.234375q-0.015625 0.09375 -0.015625 0.140625q0 0.03125 0 0.046875q0 0.296875 0.140625 0.453125q0.140625 0.140625 0.390625 0.140625q0.15625 0 0.265625 -0.046875q0.125 -0.046875 0.203125 -0.09375q0.09375 -0.0625 0.15625 -0.09375q0.0625 -0.046875 0.109375 -0.046875q0.046875 0 0.078125 0.03125q0.03125 0.015625 0.046875 0.0625l0.234375 0.515625q-0.296875 0.25 -0.671875 0.40625q-0.375 0.140625 -0.75 0.140625q-0.578125 0 -0.921875 -0.3125q-0.328125 -0.328125 -0.34375 -0.921875z" fill-rule="nonzero"></path><path fill="#ffc425" d="m58.85827 56.333332l0 0c0 -11.489262 9.313889 -20.80315 20.803146 -20.80315l0 0c5.5173416 0 10.808701 2.1917572 14.7100525 6.0931015c3.9013443 3.901348 6.0931015 9.192711 6.0931015 14.710049l0 0c0 11.489262 -9.313889 20.80315 -20.803154 20.80315l0 0c-11.489258 0 -20.803146 -9.313889 -20.803146 -20.80315z" fill-rule="nonzero"></path><path stroke="#000000" stroke-width="1.0" stroke-linejoin="round" stroke-linecap="butt" d="m58.85827 56.333332l0 0c0 -11.489262 9.313889 -20.80315 20.803146 -20.80315l0 0c5.5173416 0 10.808701 2.1917572 14.7100525 6.0931015c3.9013443 3.901348 6.0931015 9.192711 6.0931015 14.710049l0 0c0 11.489262 -9.313889 20.80315 -20.803154 20.80315l0 0c-11.489258 0 -20.803146 -9.313889 -20.803146 -20.80315z" fill-rule="nonzero"></path><path fill="#000000" fill-opacity="0.0" d="m26.963255 18.900263l41.6063 0l0 32.409447l-41.6063 0z" fill-rule="nonzero"></path><path fill="#000000" d="m42.478878 40.38276l-0.671875 5.4375l-1.78125 0l0.671875 -5.421875l-3.578125 -8.1875l1.5625 0q0.25 0 0.375 0.125q0.125 0.109375 0.1875 0.28125l2.265625 5.453125q0.09375 0.28125 0.15625 0.53125q0.078125 0.25 0.125 0.5q0.109375 -0.25 0.25 -0.5q0.140625 -0.25 0.296875 -0.53125l3.625 -5.453125q0.09375 -0.140625 0.25 -0.265625q0.15625 -0.140625 0.390625 -0.140625l1.46875 0l-5.59375 8.171875z" fill-rule="nonzero"></path><path fill="#000000" d="m47.78364 51.679634q0 -0.046875 0 -0.09375q0 -0.0625 0.015625 -0.171875q0.015625 -0.109375 0.03125 -0.28125q0.015625 -0.171875 0.046875 -0.453125l0.375 -3.046875l-0.671875 0q-0.078125 0 -0.140625 -0.046875q-0.046875 -0.046875 -0.046875 -0.140625q0 -0.015625 0 -0.0625q0.015625 -0.0625 0.015625 -0.125q0.015625 -0.078125 0.03125 -0.140625q0.015625 -0.078125 0.015625 -0.140625l0.9375 -0.125l0.453125 -1.875q0.015625 -0.09375 0.078125 -0.140625q0.078125 -0.0625 0.171875 -0.0625l0.5625 0l-0.265625 2.09375l1.59375 0l-0.09375 0.765625l-1.59375 0l-0.375 2.984375q-0.03125 0.25 -0.046875 0.40625q0 0.140625 -0.015625 0.234375q-0.015625 0.09375 -0.015625 0.140625q0 0.03125 0 0.046875q0 0.296875 0.140625 0.453125q0.140625 0.140625 0.390625 0.140625q0.15625 0 0.265625 -0.046875q0.125 -0.046875 0.203125 -0.09375q0.09375 -0.0625 0.15625 -0.09375q0.0625 -0.046875 0.109375 -0.046875q0.046875 0 0.078125 0.03125q0.03125 0.015625 0.046875 0.0625l0.234375 0.515625q-0.296875 0.25 -0.671875 0.40625q-0.375 0.140625 -0.75 0.140625q-0.578125 0 -0.921875 -0.3125q-0.328125 -0.328125 -0.34375 -0.921875z" fill-rule="nonzero"></path><path fill="#49dea4" d="m58.85827 148.19423l0 0c0 -11.489273 9.313889 -20.803154 20.803146 -20.803154l0 0c5.5173416 0 10.808701 2.1917496 14.7100525 6.0931015c3.9013443 3.901352 6.0931015 9.192703 6.0931015 14.7100525l0 0c0 11.489258 -9.313889 20.803146 -20.803154 20.803146l0 0c-11.489258 0 -20.803146 -9.313889 -20.803146 -20.803146z" fill-rule="nonzero"></path><path stroke="#000000" stroke-width="1.0" stroke-linejoin="round" stroke-linecap="butt" d="m58.85827 148.19423l0 0c0 -11.489273 9.313889 -20.803154 20.803146 -20.803154l0 0c5.5173416 0 10.808701 2.1917496 14.7100525 6.0931015c3.9013443 3.901352 6.0931015 9.192703 6.0931015 14.7100525l0 0c0 11.489258 -9.313889 20.803146 -20.803154 20.803146l0 0c-11.489258 0 -20.803146 -9.313889 -20.803146 -20.803146z" fill-rule="nonzero"></path><path fill="#000000" fill-opacity="0.0" d="m79.661415 219.39108l0 -50.393707" fill-rule="nonzero"></path><path stroke="#000000" stroke-width="1.0" stroke-linejoin="round" stroke-linecap="butt" d="m79.661415 219.39108l0 -46.96663" fill-rule="evenodd"></path><path fill="#000000" stroke="#000000" stroke-width="1.0" stroke-linecap="butt" d="m79.661415 172.42447l1.124588 1.1245728l-1.124588 -3.0897675l-1.1245804 3.0897675z" fill-rule="evenodd"></path><path fill="#000000" fill-opacity="0.0" d="m24.95013 94.980316l40.000004 0l0 32.409447l-40.000004 0z" fill-rule="nonzero"></path><path fill="#000000" d="m40.82513 113.82219q-0.078125 0.109375 -0.15625 0.171875q-0.078125 0.046875 -0.1875 0.046875q-0.140625 0 -0.296875 -0.109375q-0.15625 -0.109375 -0.375 -0.234375q-0.21875 -0.125 -0.546875 -0.234375q-0.328125 -0.109375 -0.78125 -0.109375q-0.421875 0 -0.78125 0.125q-0.34375 0.109375 -0.609375 0.328125q-0.25 0.203125 -0.390625 0.484375q-0.140625 0.28125 -0.140625 0.59375q0 0.4375 0.296875 0.703125q0.296875 0.265625 0.734375 0.46875q0.453125 0.1875 0.96875 0.375q0.515625 0.171875 0.953125 0.453125q0.453125 0.28125 0.75 0.703125q0.296875 0.421875 0.296875 1.109375q0 0.671875 -0.265625 1.28125q-0.25 0.59375 -0.75 1.0625q-0.484375 0.453125 -1.171875 0.734375q-0.6875 0.28125 -1.546875 0.28125q-0.921875 0 -1.625 -0.328125q-0.703125 -0.328125 -1.15625 -0.84375l0.421875 -0.640625q0.078125 -0.125 0.171875 -0.1875q0.109375 -0.078125 0.265625 -0.078125q0.15625 0 0.3125 0.140625q0.15625 0.125 0.375 0.296875q0.234375 0.15625 0.578125 0.296875q0.34375 0.140625 0.875 0.140625q0.46875 0 0.84375 -0.140625q0.375 -0.15625 0.625 -0.390625q0.265625 -0.234375 0.40625 -0.546875q0.140625 -0.328125 0.140625 -0.6875q0 -0.484375 -0.296875 -0.765625q-0.296875 -0.28125 -0.75 -0.46875q-0.4375 -0.203125 -0.953125 -0.359375q-0.5 -0.171875 -0.953125 -0.421875q-0.453125 -0.265625 -0.75 -0.6875q-0.28125 -0.421875 -0.28125 -1.109375q0 -0.609375 0.234375 -1.171875q0.25 -0.578125 0.703125 -1.015625q0.453125 -0.4375 1.09375 -0.6875q0.65625 -0.265625 1.484375 -0.265625q0.859375 0 1.515625 0.296875q0.671875 0.28125 1.140625 0.78125l-0.421875 0.609375z" fill-rule="nonzero"></path><path fill="#000000" d="m42.160534 127.75969q0 -0.046875 0 -0.09375q0 -0.0625 0.015625 -0.171875q0.015625 -0.109375 0.03125 -0.28125q0.015625 -0.171875 0.046875 -0.453125l0.375 -3.046875l-0.671875 0q-0.078125 0 -0.140625 -0.046875q-0.046875 -0.046875 -0.046875 -0.140625q0 -0.015625 0 -0.0625q0.015625 -0.0625 0.015625 -0.125q0.015625 -0.078125 0.03125 -0.140625q0.015625 -0.078125 0.015625 -0.140625l0.9375 -0.125l0.453125 -1.875q0.015625 -0.09375 0.078125 -0.140625q0.078125 -0.0625 0.171875 -0.0625l0.5625 0l-0.265625 2.09375l1.59375 0l-0.09375 0.765625l-1.59375 0l-0.375 2.984375q-0.03125 0.25 -0.046875 0.40625q0 0.140625 -0.015625 0.234375q-0.015625 0.09375 -0.015625 0.140625q0 0.03125 0 0.046875q0 0.296875 0.140625 0.453125q0.140625 0.140625 0.390625 0.140625q0.15625 0 0.265625 -0.046875q0.125 -0.046875 0.203125 -0.09375q0.09375 -0.0625 0.15625 -0.09375q0.0625 -0.046875 0.109375 -0.046875q0.046875 0 0.078125 0.03125q0.03125 0.015625 0.046875 0.0625l0.234375 0.515625q-0.296875 0.25 -0.671875 0.40625q-0.375 0.140625 -0.75 0.140625q-0.578125 0 -0.921875 -0.3125q-0.328125 -0.328125 -0.34375 -0.921875zm3.6034813 0.40625q0 -0.28125 0.1875 -0.484375q0.203125 -0.203125 0.53125 -0.203125q0.171875 0 0.3125 0.078125q0.140625 0.0625 0.234375 0.1875q0.09375 0.109375 0.140625 0.265625q0.046875 0.140625 0.046875 0.328125q0 0.265625 -0.078125 0.5625q-0.0625 0.28125 -0.21875 0.5625q-0.140625 0.296875 -0.359375 0.5625q-0.203125 0.265625 -0.46875 0.5l-0.1875 -0.171875q-0.078125 -0.078125 -0.078125 -0.171875q0 -0.0625 0.09375 -0.1875q0.09375 -0.109375 0.21875 -0.265625q0.125 -0.15625 0.234375 -0.375q0.125 -0.203125 0.171875 -0.453125l-0.078125 0q-0.3125 0 -0.515625 -0.203125q-0.1875 -0.203125 -0.1875 -0.53125zm3.814766 -0.0625l1.859375 0l0.734375 -6.03125l0.109375 -0.453125l-1.765625 1.375q-0.109375 0.078125 -0.21875 0.078125q-0.09375 0 -0.171875 -0.03125q-0.0625 -0.046875 -0.09375 -0.09375l-0.265625 -0.453125l2.8125 -2.203125l0.84375 0l-0.953125 7.8125l1.703125 0l-0.09375 0.796875l-4.59375 0l0.09375 -0.796875z" fill-rule="nonzero"></path><path fill="#000000" fill-opacity="0.0" d="m94.37147 133.48418c0 -12.016388 12.551201 -23.411171 26.461243 -24.032776c13.910042 -0.6216049 29.178902 9.529961 26.461235 19.370712c-2.7176666 9.840775 -23.421867 19.370728 -46.843742 19.370728" fill-rule="nonzero"></path><path stroke="#000000" stroke-width="1.0" stroke-linejoin="round" stroke-linecap="butt" stroke-dasharray="4.0,3.0" d="m94.37146 133.48418c0 -12.016388 12.551216 -23.411171 26.46125 -24.032776c13.910027 -0.6216049 29.178902 9.529961 26.46125 19.370712c-1.358841 4.9203796 -7.214325 9.763062 -15.657806 13.375656c-4.2217407 1.8062897 -9.0905 3.3050537 -14.367691 4.352249c-2.6385803 0.52360535 -5.37928 0.9343109 -8.192268 1.2141113c-1.4064941 0.13990784 -2.8310547 0.24707031 -4.269966 0.31929016l-0.92962646 0.040863037" fill-rule="evenodd"></path><path fill="#000000" stroke="#000000" stroke-width="1.0" stroke-linecap="butt" d="m103.8766 148.12428l1.10186 -1.1468506l-3.0666504 1.1861572l3.1116486 1.0625458z" fill-rule="evenodd"></path><path fill="#0194d3" d="m58.85827 332.1942l0 0c0 -11.489258 9.313889 -20.803131 20.803146 -20.803131l0 0c5.5173416 0 10.808701 2.191742 14.7100525 6.093109c3.9013443 3.9013367 6.0931015 9.192688 6.0931015 14.710022l0 0c0 11.489288 -9.313889 20.803162 -20.803154 20.803162l0 0c-11.489258 0 -20.803146 -9.313873 -20.803146 -20.803162z" fill-rule="nonzero"></path><path stroke="#000000" stroke-width="1.0" stroke-linejoin="round" stroke-linecap="butt" d="m58.85827 332.1942l0 0c0 -11.489258 9.313889 -20.803131 20.803146 -20.803131l0 0c5.5173416 0 10.808701 2.191742 14.7100525 6.093109c3.9013443 3.9013367 6.0931015 9.192688 6.0931015 14.710022l0 0c0 11.489288 -9.313889 20.803162 -20.803154 20.803162l0 0c-11.489258 0 -20.803146 -9.313873 -20.803146 -20.803162z" fill-rule="nonzero"></path><path fill="#000000" fill-opacity="0.0" d="m79.661415 311.39108l0 -50.393707" fill-rule="nonzero"></path><path stroke="#000000" stroke-width="1.0" stroke-linejoin="round" stroke-linecap="butt" d="m79.661415 311.39108l0 -46.966614" fill-rule="evenodd"></path><path fill="#000000" stroke="#000000" stroke-width="1.0" stroke-linecap="butt" d="m79.661415 264.42447l1.124588 1.1245728l-1.124588 -3.0897522l-1.1245804 3.0897522z" fill-rule="evenodd"></path><path fill="#000000" fill-opacity="0.0" d="m94.37147 225.48418c0 -15.546539 12.482613 -30.000778 26.314255 -31.093079c13.831642 -1.0923004 29.012321 11.177368 26.314262 22.900864c-2.6980743 11.723511 -23.274895 22.900879 -46.54978 22.900879" fill-rule="nonzero"></path><path stroke="#000000" stroke-width="1.0" stroke-linejoin="round" stroke-linecap="butt" stroke-dasharray="4.0,3.0" d="m94.37146 225.48418c0 -15.546539 12.482613 -30.000793 26.31427 -31.093079c13.8316345 -1.0923004 29.012314 11.177368 26.314255 22.900879c-1.3490448 5.8617554 -7.167755 11.58696 -15.558594 15.846741c-4.1953964 2.1298828 -9.033836 3.8934174 -14.278107 5.124466c-2.6221313 0.6155243 -5.3457184 1.0979614 -8.141121 1.4264679c-1.3976974 0.16427612 -2.8133469 0.29006958 -4.2432404 0.37480164c-0.17873383 0.010574341 -0.35769653 0.020523071 -0.53686523 0.029830933l-0.36572266 0.017654419" fill-rule="evenodd"></path><path fill="#000000" stroke="#000000" stroke-width="1.0" stroke-linecap="butt" d="m103.876335 240.11192l1.0977249 -1.1508179l-3.0623627 1.1972198l3.1154556 1.0513306z" fill-rule="evenodd"></path><path fill="#000000" fill-opacity="0.0" d="m21.813648 203.18636l51.905514 0l0 32.40944l-51.905514 0z" fill-rule="nonzero"></path><path fill="#000000" d="m37.68865 222.02823q-0.078125 0.109375 -0.15625 0.171875q-0.078125 0.046875 -0.1875 0.046875q-0.140625 0 -0.296875 -0.109375q-0.15625 -0.109375 -0.375 -0.234375q-0.21875 -0.125 -0.546875 -0.234375q-0.328125 -0.109375 -0.78125 -0.109375q-0.421875 0 -0.78125 0.125q-0.34375 0.109375 -0.609375 0.328125q-0.25 0.203125 -0.390625 0.484375q-0.140625 0.28125 -0.140625 0.59375q0 0.4375 0.296875 0.703125q0.296875 0.265625 0.734375 0.46875q0.453125 0.1875 0.96875 0.375q0.515625 0.171875 0.953125 0.453125q0.453125 0.28125 0.75 0.703125q0.296875 0.421875 0.296875 1.109375q0 0.671875 -0.265625 1.28125q-0.25 0.59375 -0.75 1.0625q-0.484375 0.453125 -1.171875 0.734375q-0.6875 0.28125 -1.546875 0.28125q-0.921875 0 -1.625 -0.328125q-0.703125 -0.328125 -1.15625 -0.84375l0.421875 -0.640625q0.078125 -0.125 0.171875 -0.1875q0.109375 -0.078125 0.265625 -0.078125q0.15625 0 0.3125 0.140625q0.15625 0.125 0.375 0.296875q0.234375 0.15625 0.578125 0.296875q0.34375 0.140625 0.875 0.140625q0.46875 0 0.84375 -0.140625q0.375 -0.15625 0.625 -0.390625q0.265625 -0.234375 0.40625 -0.546875q0.140625 -0.328125 0.140625 -0.6875q0 -0.484375 -0.296875 -0.765625q-0.296875 -0.28125 -0.75 -0.46875q-0.4375 -0.203125 -0.953125 -0.359375q-0.5 -0.171875 -0.953125 -0.421875q-0.453125 -0.265625 -0.75 -0.6875q-0.28125 -0.421875 -0.28125 -1.109375q0 -0.609375 0.234375 -1.171875q0.25 -0.578125 0.703125 -1.015625q0.453125 -0.4375 1.09375 -0.6875q0.65625 -0.265625 1.484375 -0.265625q0.859375 0 1.515625 0.296875q0.671875 0.28125 1.140625 0.78125l-0.421875 0.609375z" fill-rule="nonzero"></path><path fill="#000000" d="m39.02405 235.96573q0 -0.046875 0 -0.09375q0 -0.0625 0.015625 -0.171875q0.015625 -0.109375 0.03125 -0.28125q0.015625 -0.171875 0.046875 -0.453125l0.375 -3.046875l-0.671875 0q-0.078125 0 -0.140625 -0.046875q-0.046875 -0.046875 -0.046875 -0.140625q0 -0.015625 0 -0.0625q0.015625 -0.0625 0.015625 -0.125q0.015625 -0.078125 0.03125 -0.140625q0.015625 -0.078125 0.015625 -0.140625l0.9375 -0.125l0.453125 -1.875q0.015625 -0.09375 0.078125 -0.140625q0.078125 -0.0625 0.171875 -0.0625l0.5625 0l-0.265625 2.09375l1.59375 0l-0.09375 0.765625l-1.59375 0l-0.375 2.984375q-0.03125 0.25 -0.046875 0.40625q0 0.140625 -0.015625 0.234375q-0.015625 0.09375 -0.015625 0.140625q0 0.03125 0 0.046875q0 0.296875 0.140625 0.453125q0.140625 0.140625 0.390625 0.140625q0.15625 0 0.265625 -0.046875q0.125 -0.046875 0.203125 -0.09375q0.09375 -0.0625 0.15625 -0.09375q0.0625 -0.046875 0.109375 -0.046875q0.046875 0 0.078125 0.03125q0.03125 0.015625 0.046875 0.0625l0.234375 0.515625q-0.296875 0.25 -0.671875 0.40625q-0.375 0.140625 -0.75 0.140625q-0.578125 0 -0.921875 -0.3125q-0.328125 -0.328125 -0.34375 -0.921875zm3.6034813 0.40625q0 -0.28125 0.1875 -0.484375q0.203125 -0.203125 0.53125 -0.203125q0.171875 0 0.3125 0.078125q0.140625 0.0625 0.234375 0.1875q0.09375 0.109375 0.140625 0.265625q0.046875 0.140625 0.046875 0.328125q0 0.265625 -0.078125 0.5625q-0.0625 0.28125 -0.21875 0.5625q-0.140625 0.296875 -0.359375 0.5625q-0.203125 0.265625 -0.46875 0.5l-0.1875 -0.171875q-0.078125 -0.078125 -0.078125 -0.171875q0 -0.0625 0.09375 -0.1875q0.09375 -0.109375 0.21875 -0.265625q0.125 -0.15625 0.234375 -0.375q0.125 -0.203125 0.171875 -0.453125l-0.078125 0q-0.3125 0 -0.515625 -0.203125q-0.1875 -0.203125 -0.1875 -0.53125zm6.517891 -7.953125q0.5625 0 1.046875 0.21875q0.484375 0.21875 0.828125 0.65625q0.34375 0.4375 0.53125 1.09375q0.203125 0.65625 0.203125 1.53125q0 1.34375 -0.296875 2.34375q-0.296875 0.984375 -0.796875 1.640625q-0.5 0.65625 -1.171875 0.984375q-0.671875 0.3125 -1.421875 0.3125q-0.578125 0 -1.0625 -0.21875q-0.484375 -0.21875 -0.828125 -0.65625q-0.34375 -0.4375 -0.546875 -1.09375q-0.1875 -0.65625 -0.1875 -1.53125q0 -1.34375 0.296875 -2.328125q0.296875 -1.0 0.796875 -1.65625q0.5 -0.65625 1.171875 -0.96875q0.671875 -0.328125 1.4375 -0.328125zm-0.953125 7.90625q0.5 0 0.953125 -0.265625q0.453125 -0.265625 0.796875 -0.796875q0.34375 -0.546875 0.53125 -1.375q0.203125 -0.828125 0.203125 -1.9375q0 -0.71875 -0.140625 -1.21875q-0.125 -0.515625 -0.359375 -0.828125q-0.21875 -0.328125 -0.53125 -0.46875q-0.296875 -0.140625 -0.640625 -0.140625q-0.5 0 -0.953125 0.265625q-0.453125 0.265625 -0.796875 0.8125q-0.328125 0.53125 -0.53125 1.359375q-0.203125 0.828125 -0.203125 1.9375q0 0.71875 0.140625 1.234375q0.140625 0.5 0.359375 0.828125q0.234375 0.3125 0.53125 0.453125q0.3125 0.140625 0.640625 0.140625z" fill-rule="nonzero"></path></g></svg>

