<?xml version="1.0" standalone="yes"?>

<svg version="1.1" viewBox="0.0 0.0 100.0 203.501312335958" fill="none" stroke="none" stroke-linecap="square" stroke-miterlimit="10" xmlns="http://www.w3.org/2000/svg" xmlns:xlink="http://www.w3.org/1999/xlink"><clipPath id="p.0"><path d="m0 0l100.0 0l0 203.50131l-100.0 0l0 -203.50131z" clip-rule="nonzero"></path></clipPath><g clip-path="url(#p.0)"><path fill="#000000" fill-opacity="0.0" d="m0 0l100.0 0l0 203.50131l-100.0 0z" fill-rule="nonzero"></path><path fill="#0194d3" d="m33.67848 138.6063l0 0c0 -11.489258 9.313889 -20.803146 20.80315 -20.803146l0 0c5.517338 0 10.808701 2.1917572 14.710045 6.0931015c3.901352 3.901352 6.0931015 9.192711 6.0931015 14.710045l0 0c0 11.489273 -9.313889 20.803162 -20.803146 20.803162l0 0c-11.489262 0 -20.80315 -9.313889 -20.80315 -20.803162z" fill-rule="nonzero"></path><path stroke="#000000" stroke-width="1.0" stroke-linejoin="round" stroke-linecap="butt" d="m33.67848 138.6063l0 0c0 -11.489258 9.313889 -20.803146 20.80315 -20.803146l0 0c5.517338 0 10.808701 2.1917572 14.710045 6.0931015c3.901352 3.901352 6.0931015 9.192711 6.0931015 14.710045l0 0c0 11.489273 -9.313889 20.803162 -20.803146 20.803162l0 0c-11.489262 0 -20.80315 -9.313889 -20.80315 -20.803162z" fill-rule="nonzero"></path><path fill="#ffc425" d="m33.67848 50.6063l0 0c0 -11.489262 9.313889 -20.80315 20.80315 -20.80315l0 0c5.517338 0 10.808701 2.1917534 14.710045 6.0931015c3.901352 3.901348 6.0931015 9.192711 6.0931015 14.710049l0 0c0 11.489262 -9.313889 20.803146 -20.803146 20.803146l0 0c-11.489262 0 -20.80315 -9.313885 -20.80315 -20.803146z" fill-rule="nonzero"></path><path stroke="#000000" stroke-width="1.0" stroke-linejoin="round" stroke-linecap="butt" d="m33.67848 50.6063l0 0c0 -11.489262 9.313889 -20.80315 20.80315 -20.80315l0 0c5.517338 0 10.808701 2.1917534 14.710045 6.0931015c3.901352 3.901348 6.0931015 9.192711 6.0931015 14.710049l0 0c0 11.489262 -9.313889 20.803146 -20.803146 20.803146l0 0c-11.489262 0 -20.80315 -9.313885 -20.80315 -20.803146z" fill-rule="nonzero"></path><path fill="#000000" fill-opacity="0.0" d="m54.48163 117.80315l0 -46.3937" fill-rule="nonzero"></path><path stroke="#000000" stroke-width="1.0" stroke-linejoin="round" stroke-linecap="butt" d="m54.48163 117.80315l0 -42.966606" fill-rule="evenodd"></path><path fill="#000000" stroke="#000000" stroke-width="1.0" stroke-linecap="butt" d="m54.48163 74.83653l1.1245842 1.124588l-1.1245842 -3.0897675l-1.1245842 3.0897675z" fill-rule="evenodd"></path><path fill="#000000" fill-opacity="0.0" d="m12.114173 149.04724l31.338581 0l0 32.409454l-31.338581 0z" fill-rule="nonzero"></path><path fill="#000000" d="m25.864174 168.70161l-3.203125 -6.34375l1.609375 0q0.203125 0 0.28125 0.0625q0.09375 0.0625 0.15625 0.203125l2.421875 5.125q0.09375 -0.171875 0.21875 -0.34375l3.453125 -4.78125q0.109375 -0.125 0.203125 -0.1875q0.109375 -0.078125 0.25 -0.078125l1.828125 0l-4.765625 6.265625l3.59375 7.34375l-1.59375 0q-0.1875 0 -0.296875 -0.109375q-0.109375 -0.109375 -0.171875 -0.234375l-2.765625 -5.9375q-0.078125 0.15625 -0.171875 0.28125l-4.09375 5.65625q-0.25 0.34375 -0.59375 0.34375l-1.78125 0l5.421875 -7.265625z" fill-rule="nonzero"></path><path fill="#000000" fill-opacity="0.0" d="m5.547244 10.574803l31.338581 0l0 32.40945l-31.338581 0z" fill-rule="nonzero"></path><path fill="#000000" d="m21.06287 32.0573l-0.671875 5.4375l-1.78125 0l0.671875 -5.421875l-3.578126 -8.1875l1.562501 0q0.25 0 0.375 0.125q0.125 0.109375 0.1875 0.28125l2.265625 5.453125q0.09375 0.28125 0.15625 0.53125q0.078125 0.25 0.125 0.5q0.109375 -0.25 0.25 -0.5q0.140625 -0.25 0.296875 -0.53125l3.625 -5.453125q0.09375 -0.140625 0.25 -0.265625q0.15625 -0.140625 0.390625 -0.140625l1.46875 0l-5.59375 8.171875z" fill-rule="nonzero"></path></g></svg>

