<?xml version="1.0" standalone="yes"?>

<svg version="1.1" viewBox="0.0 0.0 472.0 290.0" fill="none" stroke="none" stroke-linecap="square" stroke-miterlimit="10" xmlns="http://www.w3.org/2000/svg" xmlns:xlink="http://www.w3.org/1999/xlink"><clipPath id="p.0"><path d="m0 0l472.0 0l0 290.0l-472.0 0l0 -290.0z" clip-rule="nonzero"></path></clipPath><g clip-path="url(#p.0)"><path fill="#000000" fill-opacity="0.0" d="m0 0l472.0 0l0 290.0l-472.0 0z" fill-rule="nonzero"></path><path fill="#0194d3" d="m89.062996 248.10236l0 0c0 -11.489258 9.313881 -20.803146 20.803146 -20.803146l0 0c5.517334 0 10.808701 2.1917572 14.710045 6.093109c3.901352 3.9013367 6.093109 9.192703 6.093109 14.710037l0 0c0 11.489258 -9.313889 20.803162 -20.803154 20.803162l0 0c-11.489265 0 -20.803146 -9.313904 -20.803146 -20.803162z" fill-rule="nonzero"></path><path stroke="#000000" stroke-width="1.0" stroke-linejoin="round" stroke-linecap="butt" d="m89.062996 248.10236l0 0c0 -11.489258 9.313881 -20.803146 20.803146 -20.803146l0 0c5.517334 0 10.808701 2.1917572 14.710045 6.093109c3.901352 3.9013367 6.093109 9.192703 6.093109 14.710037l0 0c0 11.489258 -9.313889 20.803162 -20.803154 20.803162l0 0c-11.489265 0 -20.803146 -9.313904 -20.803146 -20.803162z" fill-rule="nonzero"></path><path fill="#49dea4" d="m17.062992 156.10236l0 0c0 -11.489258 9.313887 -20.803146 20.80315 -20.803146l0 0c5.517338 0 10.808701 2.1917572 14.710049 6.093109c3.901348 3.9013367 6.0931015 9.192703 6.0931015 14.710037l0 0c0 11.489273 -9.313889 20.803162 -20.80315 20.803162l0 0c-11.489264 0 -20.80315 -9.313889 -20.80315 -20.803162z" fill-rule="nonzero"></path><path stroke="#000000" stroke-width="1.0" stroke-linejoin="round" stroke-linecap="butt" d="m17.062992 156.10236l0 0c0 -11.489258 9.313887 -20.803146 20.80315 -20.803146l0 0c5.517338 0 10.808701 2.1917572 14.710049 6.093109c3.901348 3.9013367 6.0931015 9.192703 6.0931015 14.710037l0 0c0 11.489273 -9.313889 20.803162 -20.80315 20.803162l0 0c-11.489264 0 -20.80315 -9.313889 -20.80315 -20.803162z" fill-rule="nonzero"></path><path fill="#000000" fill-opacity="0.0" d="m109.86614 135.29921l0 -50.267715" fill-rule="nonzero"></path><path stroke="#000000" stroke-width="1.0" stroke-linejoin="round" stroke-linecap="butt" d="m109.86614 135.29921l0 -46.84063" fill-rule="evenodd"></path><path fill="#000000" stroke="#000000" stroke-width="1.0" stroke-linecap="butt" d="m109.86614 88.45858l1.1245804 1.124588l-1.1245804 -3.0897675l-1.1245804 3.0897675z" fill-rule="evenodd"></path><path fill="#000000" fill-opacity="0.0" d="m62.19685 203.16011l41.606297 0l0 32.40944l-41.606297 0z" fill-rule="nonzero"></path><path fill="#000000" d="m75.94685 222.81448l-3.203125 -6.34375l1.609375 0q0.203125 0 0.28125 0.0625q0.09375 0.0625 0.15625 0.203125l2.421875 5.125q0.09375 -0.171875 0.21875 -0.34375l3.453125 -4.78125q0.109375 -0.125 0.203125 -0.1875q0.109375 -0.078125 0.25 -0.078125l1.828125 0l-4.765625 6.265625l3.59375 7.34375l-1.59375 0q-0.1875 0 -0.296875 -0.109375q-0.109375 -0.109375 -0.171875 -0.234375l-2.765625 -5.9375q-0.078125 0.15625 -0.171875 0.28125l-4.09375 5.65625q-0.25 0.34375 -0.59375 0.34375l-1.78125 0l5.421875 -7.265625z" fill-rule="nonzero"></path><path fill="#000000" d="m86.487854 228.39261q0.5625 0 1.046875 0.21875q0.484375 0.21875 0.828125 0.65625q0.34375 0.4375 0.53125 1.09375q0.203125 0.65625 0.203125 1.53125q0 1.34375 -0.296875 2.34375q-0.296875 0.984375 -0.796875 1.640625q-0.5 0.65625 -1.171875 0.984375q-0.671875 0.3125 -1.421875 0.3125q-0.578125 0 -1.0625 -0.21875q-0.484375 -0.21875 -0.828125 -0.65625q-0.34375 -0.4375 -0.546875 -1.09375q-0.1875 -0.65625 -0.1875 -1.53125q0 -1.34375 0.296875 -2.328125q0.296875 -1.0 0.796875 -1.65625q0.5 -0.65625 1.171875 -0.96875q0.671875 -0.328125 1.4375 -0.328125zm-0.953125 7.90625q0.5 0 0.953125 -0.265625q0.453125 -0.265625 0.796875 -0.796875q0.34375 -0.546875 0.53125 -1.375q0.203125 -0.828125 0.203125 -1.9375q0 -0.71875 -0.140625 -1.21875q-0.125 -0.515625 -0.359375 -0.828125q-0.21875 -0.328125 -0.53125 -0.46875q-0.296875 -0.140625 -0.640625 -0.140625q-0.5 0 -0.953125 0.265625q-0.453125 0.265625 -0.796875 0.8125q-0.328125 0.53125 -0.53125 1.359375q-0.203125 0.828125 -0.203125 1.9375q0 0.71875 0.140625 1.234375q0.140625 0.5 0.359375 0.828125q0.234375 0.3125 0.53125 0.453125q0.3125 0.140625 0.640625 0.140625z" fill-rule="nonzero"></path><path fill="#000000" fill-opacity="0.0" d="m17.062992 99.391075l45.133858 0l0 32.409447l-45.133858 0z" fill-rule="nonzero"></path><path fill="#000000" d="m32.937992 118.23295q-0.078125 0.109375 -0.15625 0.171875q-0.078125 0.046875 -0.1875 0.046875q-0.140625 0 -0.296875 -0.109375q-0.15625 -0.109375 -0.375 -0.234375q-0.21875 -0.125 -0.546875 -0.234375q-0.328125 -0.109375 -0.78125 -0.109375q-0.421875 0 -0.78125 0.125q-0.34375 0.109375 -0.609375 0.328125q-0.25 0.203125 -0.390625 0.484375q-0.140625 0.28125 -0.140625 0.59375q0 0.4375 0.296875 0.703125q0.296875 0.265625 0.734375 0.46875q0.453125 0.1875 0.96875 0.375q0.515625 0.171875 0.953125 0.453125q0.453125 0.28125 0.75 0.703125q0.296875 0.421875 0.296875 1.109375q0 0.671875 -0.265625 1.28125q-0.25 0.59375 -0.75 1.0625q-0.484375 0.453125 -1.171875 0.734375q-0.6875 0.28125 -1.546875 0.28125q-0.921875 0 -1.625 -0.328125q-0.703125 -0.328125 -1.15625 -0.84375l0.421875 -0.640625q0.078125 -0.125 0.171875 -0.1875q0.109375 -0.078125 0.265625 -0.078125q0.15625 0 0.3125 0.140625q0.15625 0.125 0.375 0.296875q0.234375 0.15625 0.578125 0.296875q0.34375 0.140625 0.875 0.140625q0.46875 0 0.84375 -0.140625q0.375 -0.15625 0.625 -0.390625q0.265625 -0.234375 0.40625 -0.546875q0.140625 -0.328125 0.140625 -0.6875q0 -0.484375 -0.296875 -0.765625q-0.296875 -0.28125 -0.75 -0.46875q-0.4375 -0.203125 -0.953125 -0.359375q-0.5 -0.171875 -0.953125 -0.421875q-0.453125 -0.265625 -0.75 -0.6875q-0.28125 -0.421875 -0.28125 -1.109375q0 -0.609375 0.234375 -1.171875q0.25 -0.578125 0.703125 -1.015625q0.453125 -0.4375 1.09375 -0.6875q0.65625 -0.265625 1.484375 -0.265625q0.859375 0 1.515625 0.296875q0.671875 0.28125 1.140625 0.78125l-0.421875 0.609375z" fill-rule="nonzero"></path><path fill="#000000" d="m35.679646 127.23295l-0.734375 6.0781326l-1.0625 0l0.734375 -6.0781326l1.0625 0zm0.390625 -1.90625q0 0.15625 -0.0625 0.296875q-0.0625 0.125 -0.171875 0.234375q-0.09375 0.109375 -0.234375 0.171875q-0.125 0.046875 -0.265625 0.046875q-0.140625 0 -0.28125 -0.046875q-0.125 -0.0625 -0.234375 -0.171875q-0.09375 -0.109375 -0.15625 -0.234375q-0.046875 -0.140625 -0.046875 -0.296875q0 -0.15625 0.046875 -0.296875q0.0625 -0.140625 0.15625 -0.234375q0.109375 -0.109375 0.234375 -0.171875q0.140625 -0.0625 0.28125 -0.0625q0.140625 0 0.265625 0.0625q0.140625 0.046875 0.25 0.15625q0.109375 0.109375 0.15625 0.25q0.0625 0.140625 0.0625 0.296875zm0.7003174 7.9843826l0.734375 -6.0781326l0.53125 0q0.359375 0 0.359375 0.359375l-0.09375 1.1718826q0.484375 -0.8125076 1.09375 -1.2187576q0.609375 -0.40625 1.265625 -0.40625q0.671875 0 1.046875 0.46875q0.375 0.45313263 0.375 1.3281326q0 0.109375 0 0.234375q0 0.125 -0.015625 0.265625l-0.46875 3.875l-1.0625 0l0.453125 -3.875q0.015625 -0.109375 0.015625 -0.21875q0.015625 -0.125 0.015625 -0.21875q0 -0.5 -0.1875 -0.734375q-0.171875 -0.234375 -0.5625 -0.234375q-0.296875 0 -0.59375 0.15625q-0.296875 0.15625 -0.578125 0.453125q-0.265625 0.28125 -0.5 0.6875q-0.234375 0.390625 -0.40625 0.890625l-0.34375 3.09375l-1.078125 0zm8.479439 -6.0781326l-0.734375 6.0781326l-1.0625 0l0.734375 -6.0781326l1.0625 0zm0.390625 -1.90625q0 0.15625 -0.0625 0.296875q-0.0625 0.125 -0.171875 0.234375q-0.09375 0.109375 -0.234375 0.171875q-0.125 0.046875 -0.265625 0.046875q-0.140625 0 -0.28125 -0.046875q-0.125 -0.0625 -0.234375 -0.171875q-0.09375 -0.109375 -0.15625 -0.234375q-0.046875 -0.140625 -0.046875 -0.296875q0 -0.15625 0.046875 -0.296875q0.0625 -0.140625 0.15625 -0.234375q0.109375 -0.109375 0.234375 -0.171875q0.140625 -0.0625 0.28125 -0.0625q0.140625 0 0.265625 0.0625q0.140625 0.046875 0.25 0.15625q0.109375 0.109375 0.15625 0.25q0.0625 0.140625 0.0625 0.296875zm1.2315674 6.8437576q0 -0.046875 0 -0.09375q0 -0.0625 0.015625 -0.171875q0.015625 -0.109375 0.03125 -0.28125q0.015625 -0.171875 0.046875 -0.453125l0.375 -3.046875l-0.671875 0q-0.078125 0 -0.140625 -0.046875q-0.046875 -0.046875 -0.046875 -0.14063263q0 -0.015625 0 -0.0625q0.015625 -0.0625 0.015625 -0.125q0.015625 -0.078125 0.03125 -0.140625q0.015625 -0.078125 0.015625 -0.140625l0.9375 -0.125l0.453125 -1.875q0.015625 -0.09375 0.078125 -0.140625q0.078125 -0.0625 0.171875 -0.0625l0.5625 0l-0.265625 2.09375l1.59375 0l-0.09375 0.7656326l-1.59375 0l-0.375 2.984375q-0.03125 0.25 -0.046875 0.40625q0 0.140625 -0.015625 0.234375q-0.015625 0.09375 -0.015625 0.140625q0 0.03125 0 0.046875q0 0.296875 0.140625 0.453125q0.140625 0.140625 0.390625 0.140625q0.15625 0 0.265625 -0.046875q0.125 -0.046875 0.203125 -0.09375q0.09375 -0.0625 0.15625 -0.09375q0.0625 -0.046875 0.109375 -0.046875q0.046875 0 0.078125 0.03125q0.03125 0.015625 0.046875 0.0625l0.234375 0.515625q-0.296875 0.25 -0.671875 0.40625q-0.375 0.140625 -0.75 0.140625q-0.578125 0 -0.921875 -0.3125q-0.328125 -0.328125 -0.34375 -0.921875z" fill-rule="nonzero"></path><path fill="#ffc425" d="m89.062996 64.24147l0 0c0 -11.489262 9.313881 -20.80315 20.803146 -20.80315l0 0c5.517334 0 10.808701 2.1917534 14.710045 6.0931015c3.901352 3.901348 6.093109 9.192711 6.093109 14.710049l0 0c0 11.489265 -9.313889 20.803146 -20.803154 20.803146l0 0c-11.489265 0 -20.803146 -9.313881 -20.803146 -20.803146z" fill-rule="nonzero"></path><path stroke="#000000" stroke-width="1.0" stroke-linejoin="round" stroke-linecap="butt" d="m89.062996 64.24147l0 0c0 -11.489262 9.313881 -20.80315 20.803146 -20.80315l0 0c5.517334 0 10.808701 2.1917534 14.710045 6.0931015c3.901352 3.901348 6.093109 9.192711 6.093109 14.710049l0 0c0 11.489265 -9.313889 20.803146 -20.803154 20.803146l0 0c-11.489265 0 -20.803146 -9.313881 -20.803146 -20.803146z" fill-rule="nonzero"></path><path fill="#000000" fill-opacity="0.0" d="m58.669292 26.8084l41.606297 0l0 32.409447l-41.606297 0z" fill-rule="nonzero"></path><path fill="#000000" d="m74.18491 48.290897l-0.671875 5.4375l-1.78125 0l0.671875 -5.421875l-3.578125 -8.1875l1.5625 0q0.25 0 0.375 0.125q0.125 0.109375 0.1875 0.28125l2.265625 5.453125q0.09375 0.28125 0.15625 0.53125q0.078125 0.25 0.125 0.5q0.109375 -0.25 0.25 -0.5q0.140625 -0.25 0.296875 -0.53125l3.625 -5.453125q0.09375 -0.140625 0.25 -0.265625q0.15625 -0.140625 0.390625 -0.140625l1.46875 0l-5.59375 8.171875z" fill-rule="nonzero"></path><path fill="#000000" d="m82.70843 52.040897q0.5625 0 1.046875 0.21875q0.484375 0.21875 0.828125 0.65625q0.34375 0.4375 0.53125 1.09375q0.203125 0.65625 0.203125 1.53125q0 1.34375 -0.296875 2.34375q-0.296875 0.984375 -0.796875 1.640625q-0.5 0.65625 -1.171875 0.984375q-0.671875 0.3125 -1.421875 0.3125q-0.578125 0 -1.0625 -0.21875q-0.484375 -0.21875 -0.828125 -0.65625q-0.34375 -0.4375 -0.546875 -1.09375q-0.1875 -0.65625 -0.1875 -1.53125q0 -1.34375 0.296875 -2.328125q0.296875 -1.0 0.796875 -1.65625q0.5 -0.65625 1.171875 -0.96875q0.671875 -0.328125 1.4375 -0.328125zm-0.953125 7.90625q0.5 0 0.953125 -0.265625q0.453125 -0.265625 0.796875 -0.796875q0.34375 -0.546875 0.53125 -1.375q0.203125 -0.828125 0.203125 -1.9375q0 -0.71875 -0.140625 -1.21875q-0.125 -0.515625 -0.359375 -0.828125q-0.21875 -0.328125 -0.53125 -0.46875q-0.296875 -0.140625 -0.640625 -0.140625q-0.5 0 -0.953125 0.265625q-0.453125 0.265625 -0.796875 0.8125q-0.328125 0.53125 -0.53125 1.359375q-0.203125 0.828125 -0.203125 1.9375q0 0.71875 0.140625 1.234375q0.140625 0.5 0.359375 0.828125q0.234375 0.3125 0.53125 0.453125q0.3125 0.140625 0.640625 0.140625z" fill-rule="nonzero"></path><path fill="#49dea4" d="m89.062996 156.10236l0 0c0 -11.489258 9.313881 -20.803146 20.803146 -20.803146l0 0c5.517334 0 10.808701 2.1917572 14.710045 6.093109c3.901352 3.9013367 6.093109 9.192703 6.093109 14.710037l0 0c0 11.489273 -9.313889 20.803162 -20.803154 20.803162l0 0c-11.489265 0 -20.803146 -9.313889 -20.803146 -20.803162z" fill-rule="nonzero"></path><path stroke="#000000" stroke-width="1.0" stroke-linejoin="round" stroke-linecap="butt" d="m89.062996 156.10236l0 0c0 -11.489258 9.313881 -20.803146 20.803146 -20.803146l0 0c5.517334 0 10.808701 2.1917572 14.710045 6.093109c3.901352 3.9013367 6.093109 9.192703 6.093109 14.710037l0 0c0 11.489273 -9.313889 20.803162 -20.803154 20.803162l0 0c-11.489265 0 -20.803146 -9.313889 -20.803146 -20.803162z" fill-rule="nonzero"></path><path fill="#000000" fill-opacity="0.0" d="m109.86614 227.29921l0 -50.393692" fill-rule="nonzero"></path><path stroke="#000000" stroke-width="1.0" stroke-linejoin="round" stroke-linecap="butt" d="m109.86614 227.29921l0 -46.966614" fill-rule="evenodd"></path><path fill="#000000" stroke="#000000" stroke-width="1.0" stroke-linecap="butt" d="m109.86614 180.3326l1.1245804 1.124588l-1.1245804 -3.0897675l-1.1245804 3.0897675z" fill-rule="evenodd"></path><path fill="#000000" fill-opacity="0.0" d="m58.669292 156.10236l30.393703 0" fill-rule="nonzero"></path><path stroke="#000000" stroke-width="1.0" stroke-linejoin="round" stroke-linecap="butt" d="m58.669292 156.10236l26.96661 0" fill-rule="evenodd"></path><path fill="#000000" stroke="#000000" stroke-width="1.0" stroke-linecap="butt" d="m85.6359 156.10236l-1.1245804 1.124588l3.0897675 -1.124588l-3.0897675 -1.1245728z" fill-rule="evenodd"></path><path fill="#000000" fill-opacity="0.0" d="m66.031494 102.88845l40.0 0l0 32.409447l-40.0 0z" fill-rule="nonzero"></path><path fill="#000000" d="m81.906494 121.73032q-0.078125 0.109375 -0.15625 0.171875q-0.078125 0.046875 -0.1875 0.046875q-0.140625 0 -0.296875 -0.109375q-0.15625 -0.109375 -0.375 -0.234375q-0.21875 -0.125 -0.546875 -0.234375q-0.328125 -0.109375 -0.78125 -0.109375q-0.421875 0 -0.78125 0.125q-0.34375 0.109375 -0.609375 0.328125q-0.25 0.203125 -0.390625 0.484375q-0.140625 0.28125 -0.140625 0.59375q0 0.4375 0.296875 0.703125q0.296875 0.265625 0.734375 0.46875q0.453125 0.1875 0.96875 0.375q0.515625 0.171875 0.953125 0.453125q0.453125 0.28125 0.75 0.703125q0.296875 0.421875 0.296875 1.109375q0 0.671875 -0.265625 1.28125q-0.25 0.5937576 -0.75 1.0625076q-0.484375 0.453125 -1.171875 0.734375q-0.6875 0.28125 -1.546875 0.28125q-0.921875 0 -1.625 -0.328125q-0.703125 -0.328125 -1.15625 -0.84375l0.421875 -0.640625q0.078125 -0.125 0.171875 -0.18750763q0.109375 -0.078125 0.265625 -0.078125q0.15625 0 0.3125 0.14063263q0.15625 0.125 0.375 0.296875q0.234375 0.15625 0.578125 0.296875q0.34375 0.140625 0.875 0.140625q0.46875 0 0.84375 -0.140625q0.375 -0.15625 0.625 -0.390625q0.265625 -0.23438263 0.40625 -0.5468826q0.140625 -0.328125 0.140625 -0.6875q0 -0.484375 -0.296875 -0.765625q-0.296875 -0.28125 -0.75 -0.46875q-0.4375 -0.203125 -0.953125 -0.359375q-0.5 -0.171875 -0.953125 -0.421875q-0.453125 -0.265625 -0.75 -0.6875q-0.28125 -0.421875 -0.28125 -1.109375q0 -0.609375 0.234375 -1.171875q0.25 -0.578125 0.703125 -1.015625q0.453125 -0.4375 1.09375 -0.6875q0.65625 -0.265625 1.484375 -0.265625q0.859375 0 1.515625 0.296875q0.671875 0.28125 1.140625 0.78125l-0.421875 0.609375z" fill-rule="nonzero"></path><path fill="#000000" d="m86.46065 128.12096q0.5625 0 1.046875 0.21875q0.484375 0.21875 0.828125 0.65625q0.34375 0.4375 0.53125 1.09375q0.203125 0.65625 0.203125 1.53125q0 1.34375 -0.296875 2.34375q-0.296875 0.984375 -0.796875 1.640625q-0.5 0.65625 -1.171875 0.984375q-0.671875 0.3125 -1.421875 0.3125q-0.578125 0 -1.0625 -0.21875q-0.484375 -0.21875 -0.828125 -0.65625q-0.34375 -0.4375 -0.546875 -1.09375q-0.1875 -0.65625 -0.1875 -1.53125q0 -1.34375 0.296875 -2.328125q0.296875 -1.0 0.796875 -1.65625q0.5 -0.65625 1.171875 -0.96875q0.671875 -0.328125 1.4375 -0.328125zm-0.953125 7.90625q0.5 0 0.953125 -0.265625q0.453125 -0.265625 0.796875 -0.796875q0.34375 -0.546875 0.53125 -1.375q0.203125 -0.828125 0.203125 -1.9375q0 -0.71875 -0.140625 -1.21875q-0.125 -0.515625 -0.359375 -0.828125q-0.21875 -0.328125 -0.53125 -0.46875q-0.296875 -0.140625 -0.640625 -0.140625q-0.5 0 -0.953125 0.265625q-0.453125 0.265625 -0.796875 0.8125q-0.328125 0.53125 -0.53125 1.359375q-0.203125 0.828125 -0.203125 1.9375q0 0.71875 0.140625 1.234375q0.140625 0.5 0.359375 0.828125q0.234375 0.3125 0.53125 0.453125q0.3125 0.140625 0.640625 0.140625z" fill-rule="nonzero"></path><path fill="#0194d3" d="m162.5643 248.10104l0 0c0 -11.489258 9.313889 -20.803146 20.803146 -20.803146l0 0c5.5173492 0 10.808701 2.1917572 14.7100525 6.093109c3.901352 3.9013367 6.093109 9.192703 6.093109 14.710037l0 0c0 11.489258 -9.313889 20.803162 -20.803162 20.803162l0 0c-11.489258 0 -20.803146 -9.313904 -20.803146 -20.803162z" fill-rule="nonzero"></path><path stroke="#000000" stroke-width="1.0" stroke-linejoin="round" stroke-linecap="butt" d="m162.5643 248.10104l0 0c0 -11.489258 9.313889 -20.803146 20.803146 -20.803146l0 0c5.5173492 0 10.808701 2.1917572 14.7100525 6.093109c3.901352 3.9013367 6.093109 9.192703 6.093109 14.710037l0 0c0 11.489258 -9.313889 20.803162 -20.803162 20.803162l0 0c-11.489258 0 -20.803146 -9.313904 -20.803146 -20.803162z" fill-rule="nonzero"></path><path fill="#000000" fill-opacity="0.0" d="m183.36745 135.2979l0 -50.267715" fill-rule="nonzero"></path><path stroke="#000000" stroke-width="1.0" stroke-linejoin="round" stroke-linecap="butt" d="m183.36745 135.2979l0 -46.84063" fill-rule="evenodd"></path><path fill="#000000" stroke="#000000" stroke-width="1.0" stroke-linecap="butt" d="m183.36745 88.45727l1.124588 1.124588l-1.124588 -3.0897675l-1.1245728 3.0897675z" fill-rule="evenodd"></path><path fill="#000000" fill-opacity="0.0" d="m135.69817 203.1588l41.606293 0l0 32.40944l-41.606293 0z" fill-rule="nonzero"></path><path fill="#000000" d="m149.44817 222.81317l-3.203125 -6.34375l1.609375 0q0.203125 0 0.28125 0.0625q0.09375 0.0625 0.15625 0.203125l2.421875 5.125q0.09375 -0.171875 0.21875 -0.34375l3.453125 -4.78125q0.109375 -0.125 0.203125 -0.1875q0.109375 -0.078125 0.25 -0.078125l1.828125 0l-4.765625 6.265625l3.59375 7.34375l-1.59375 0q-0.1875 0 -0.296875 -0.109375q-0.109375 -0.109375 -0.171875 -0.234375l-2.765625 -5.9375q-0.078125 0.15625 -0.171875 0.28125l-4.09375 5.65625q-0.25 0.34375 -0.59375 0.34375l-1.78125 0l5.421875 -7.265625z" fill-rule="nonzero"></path><path fill="#000000" d="m157.28604 236.28192l1.859375 0l0.734375 -6.03125l0.109375 -0.453125l-1.765625 1.375q-0.109375 0.078125 -0.21875 0.078125q-0.09375 0 -0.171875 -0.03125q-0.0625 -0.046875 -0.09375 -0.09375l-0.265625 -0.453125l2.8125 -2.203125l0.84375 0l-0.953125 7.8125l1.703125 0l-0.09375 0.796875l-4.59375 0l0.09375 -0.796875z" fill-rule="nonzero"></path><path fill="#ffc425" d="m162.5643 64.24016l0 0c0 -11.489262 9.313889 -20.80315 20.803146 -20.80315l0 0c5.5173492 0 10.808701 2.1917534 14.7100525 6.0931015c3.901352 3.901348 6.093109 9.192711 6.093109 14.710049l0 0c0 11.489265 -9.313889 20.803146 -20.803162 20.803146l0 0c-11.489258 0 -20.803146 -9.313881 -20.803146 -20.803146z" fill-rule="nonzero"></path><path stroke="#000000" stroke-width="1.0" stroke-linejoin="round" stroke-linecap="butt" d="m162.5643 64.24016l0 0c0 -11.489262 9.313889 -20.80315 20.803146 -20.80315l0 0c5.5173492 0 10.808701 2.1917534 14.7100525 6.0931015c3.901352 3.901348 6.093109 9.192711 6.093109 14.710049l0 0c0 11.489265 -9.313889 20.803146 -20.803162 20.803146l0 0c-11.489258 0 -20.803146 -9.313881 -20.803146 -20.803146z" fill-rule="nonzero"></path><path fill="#000000" fill-opacity="0.0" d="m130.6693 26.807087l41.606293 0l0 32.409447l-41.606293 0z" fill-rule="nonzero"></path><path fill="#000000" d="m146.18492 48.289585l-0.671875 5.4375l-1.78125 0l0.671875 -5.421875l-3.578125 -8.1875l1.5625 0q0.25 0 0.375 0.125q0.125 0.109375 0.1875 0.28125l2.265625 5.453125q0.09375 0.28125 0.15625 0.53125q0.078125 0.25 0.125 0.5q0.109375 -0.25 0.25 -0.5q0.140625 -0.25 0.296875 -0.53125l3.625 -5.453125q0.09375 -0.140625 0.25 -0.265625q0.15625 -0.140625 0.390625 -0.140625l1.46875 0l-5.59375 8.171875z" fill-rule="nonzero"></path><path fill="#000000" d="m152.00531 59.93021l1.859375 0l0.734375 -6.03125l0.109375 -0.453125l-1.765625 1.375q-0.109375 0.078125 -0.21875 0.078125q-0.09375 0 -0.171875 -0.03125q-0.0625 -0.046875 -0.09375 -0.09375l-0.265625 -0.453125l2.8125 -2.203125l0.84375 0l-0.953125 7.8125l1.703125 0l-0.09375 0.796875l-4.59375 0l0.09375 -0.796875z" fill-rule="nonzero"></path><path fill="#49dea4" d="m162.5643 156.10104l0 0c0 -11.489258 9.313889 -20.803146 20.803146 -20.803146l0 0c5.5173492 0 10.808701 2.1917572 14.7100525 6.093109c3.901352 3.9013367 6.093109 9.192703 6.093109 14.710037l0 0c0 11.489273 -9.313889 20.803162 -20.803162 20.803162l0 0c-11.489258 0 -20.803146 -9.313889 -20.803146 -20.803162z" fill-rule="nonzero"></path><path stroke="#000000" stroke-width="1.0" stroke-linejoin="round" stroke-linecap="butt" d="m162.5643 156.10104l0 0c0 -11.489258 9.313889 -20.803146 20.803146 -20.803146l0 0c5.5173492 0 10.808701 2.1917572 14.7100525 6.093109c3.901352 3.9013367 6.093109 9.192703 6.093109 14.710037l0 0c0 11.489273 -9.313889 20.803162 -20.803162 20.803162l0 0c-11.489258 0 -20.803146 -9.313889 -20.803146 -20.803162z" fill-rule="nonzero"></path><path fill="#000000" fill-opacity="0.0" d="m183.36745 227.2979l0 -50.393692" fill-rule="nonzero"></path><path stroke="#000000" stroke-width="1.0" stroke-linejoin="round" stroke-linecap="butt" d="m183.36745 227.2979l0 -46.966614" fill-rule="evenodd"></path><path fill="#000000" stroke="#000000" stroke-width="1.0" stroke-linecap="butt" d="m183.36745 180.33128l1.124588 1.124588l-1.124588 -3.0897675l-1.1245728 3.0897675z" fill-rule="evenodd"></path><path fill="#000000" fill-opacity="0.0" d="m130.6693 156.10236l31.905502 0" fill-rule="nonzero"></path><path stroke="#000000" stroke-width="1.0" stroke-linejoin="round" stroke-linecap="butt" d="m130.6693 156.10236l28.478424 0" fill-rule="evenodd"></path><path fill="#000000" stroke="#000000" stroke-width="1.0" stroke-linecap="butt" d="m159.14772 156.10236l-1.124588 1.124588l3.0897675 -1.124588l-3.0897675 -1.1245728z" fill-rule="evenodd"></path><path fill="#000000" fill-opacity="0.0" d="m139.5328 102.88714l40.0 0l0 32.409447l-40.0 0z" fill-rule="nonzero"></path><path fill="#000000" d="m155.4078 121.72901q-0.078125 0.109375 -0.15625 0.171875q-0.078125 0.046875 -0.1875 0.046875q-0.140625 0 -0.296875 -0.109375q-0.15625 -0.109375 -0.375 -0.234375q-0.21875 -0.125 -0.546875 -0.234375q-0.328125 -0.109375 -0.78125 -0.109375q-0.421875 0 -0.78125 0.125q-0.34375 0.109375 -0.609375 0.328125q-0.25 0.203125 -0.390625 0.484375q-0.140625 0.28125 -0.140625 0.59375q0 0.4375 0.296875 0.703125q0.296875 0.265625 0.734375 0.46875q0.453125 0.1875 0.96875 0.375q0.515625 0.171875 0.953125 0.453125q0.453125 0.28125 0.75 0.703125q0.296875 0.421875 0.296875 1.109375q0 0.671875 -0.265625 1.28125q-0.25 0.5937576 -0.75 1.0625076q-0.484375 0.453125 -1.171875 0.734375q-0.6875 0.28125 -1.546875 0.28125q-0.921875 0 -1.625 -0.328125q-0.703125 -0.328125 -1.15625 -0.84375l0.421875 -0.640625q0.078125 -0.125 0.171875 -0.18750763q0.109375 -0.078125 0.265625 -0.078125q0.15625 0 0.3125 0.14063263q0.15625 0.125 0.375 0.296875q0.234375 0.15625 0.578125 0.296875q0.34375 0.140625 0.875 0.140625q0.46875 0 0.84375 -0.140625q0.375 -0.15625 0.625 -0.390625q0.265625 -0.23438263 0.40625 -0.5468826q0.140625 -0.328125 0.140625 -0.6875q0 -0.484375 -0.296875 -0.765625q-0.296875 -0.28125 -0.75 -0.46875q-0.4375 -0.203125 -0.953125 -0.359375q-0.5 -0.171875 -0.953125 -0.421875q-0.453125 -0.265625 -0.75 -0.6875q-0.28125 -0.421875 -0.28125 -1.109375q0 -0.609375 0.234375 -1.171875q0.25 -0.578125 0.703125 -1.015625q0.453125 -0.4375 1.09375 -0.6875q0.65625 -0.265625 1.484375 -0.265625q0.859375 0 1.515625 0.296875q0.671875 0.28125 1.140625 0.78125l-0.421875 0.609375z" fill-rule="nonzero"></path><path fill="#000000" d="m157.25883 136.01027l1.859375 0l0.734375 -6.03125l0.109375 -0.453125l-1.765625 1.375q-0.109375 0.078125 -0.21875 0.078125q-0.09375 0 -0.171875 -0.03125q-0.0625 -0.046875 -0.09375 -0.09375l-0.265625 -0.453125l2.8125 -2.203125l0.84375 0l-0.953125 7.8125l1.703125 0l-0.09375 0.796875l-4.59375 0l0.09375 -0.796875z" fill-rule="nonzero"></path><path fill="#000000" fill-opacity="0.0" d="m204.17061 156.10236l31.905502 0" fill-rule="nonzero"></path><path stroke="#000000" stroke-width="1.0" stroke-linejoin="round" stroke-linecap="butt" d="m204.17061 156.10236l28.478424 0" fill-rule="evenodd"></path><path fill="#000000" stroke="#000000" stroke-width="1.0" stroke-linecap="butt" d="m232.64903 156.10236l-1.124588 1.124588l3.0897675 -1.124588l-3.0897675 -1.1245728z" fill-rule="evenodd"></path><path fill="#000000" fill-opacity="0.0" d="m206.70079 118.0l40.0 0l0 25.984253l-40.0 0z" fill-rule="nonzero"></path><path fill="#000000" d="m217.41954 144.92l0 -1.90625l1.90625 0l0 1.90625l-1.90625 0zm5.183304 0l0 -1.90625l1.90625 0l0 1.90625l-1.90625 0zm5.183304 0l0 -1.90625l1.90625 0l0 1.90625l-1.90625 0z" fill-rule="nonzero"></path><path fill="#000000" fill-opacity="0.0" d="m260.5013 131.50131l196.97638 0l0 22.992126l-196.97638 0z" fill-rule="nonzero"></path><path fill="#000000" d="m270.4232 151.79631q0 -3.390625 1.8125 -5.296875q1.828125 -1.921875 4.703125 -1.921875q1.875 0 3.390625 0.90625q1.515625 0.890625 2.296875 2.5q0.796875 1.609375 0.796875 3.65625q0 2.0625 -0.84375 3.703125q-0.828125 1.625 -2.359375 2.46875q-1.53125 0.84375 -3.296875 0.84375q-1.921875 0 -3.4375 -0.921875q-1.5 -0.9375 -2.28125 -2.53125q-0.78125 -1.609375 -0.78125 -3.40625zm1.859375 0.03125q0 2.453125 1.3125 3.875q1.328125 1.40625 3.3125 1.40625q2.03125 0 3.34375 -1.421875q1.3125 -1.4375 1.3125 -4.0625q0 -1.65625 -0.5625 -2.890625q-0.546875 -1.234375 -1.640625 -1.921875q-1.078125 -0.6875 -2.421875 -0.6875q-1.90625 0 -3.28125 1.3125q-1.375 1.3125 -1.375 4.390625zm13.230194 6.59375l0 -13.59375l6.03125 0q1.8125 0 2.75 0.359375q0.953125 0.359375 1.515625 1.296875q0.5625 0.921875 0.5625 2.046875q0 1.453125 -0.9375 2.453125q-0.921875 0.984375 -2.890625 1.25q0.71875 0.34375 1.09375 0.671875q0.78125 0.734375 1.484375 1.8125l2.375 3.703125l-2.265625 0l-1.796875 -2.828125q-0.796875 -1.21875 -1.3125 -1.875q-0.5 -0.65625 -0.90625 -0.90625q-0.40625 -0.265625 -0.8125 -0.359375q-0.3125 -0.078125 -1.015625 -0.078125l-2.078125 0l0 6.046875l-1.796875 0zm1.796875 -7.59375l3.859375 0q1.234375 0 1.921875 -0.25q0.703125 -0.265625 1.0625 -0.828125q0.375 -0.5625 0.375 -1.21875q0 -0.96875 -0.703125 -1.578125q-0.703125 -0.625 -2.21875 -0.625l-4.296875 0l0 4.5z" fill-rule="nonzero"></path><path fill="#0194d3" d="m362.5643 245.2441l0 0c0 -11.489258 9.313904 -20.803146 20.803162 -20.803146l0 0c5.517334 0 10.808685 2.1917572 14.7100525 6.093094c3.9013367 3.901352 6.0930786 9.1927185 6.0930786 14.7100525l0 0c0 11.489273 -9.313873 20.803146 -20.803131 20.803146l0 0c-11.489258 0 -20.803162 -9.313873 -20.803162 -20.803146z" fill-rule="nonzero"></path><path stroke="#000000" stroke-width="1.0" stroke-linejoin="round" stroke-linecap="butt" d="m362.5643 245.2441l0 0c0 -11.489258 9.313904 -20.803146 20.803162 -20.803146l0 0c5.517334 0 10.808685 2.1917572 14.7100525 6.093094c3.9013367 3.901352 6.0930786 9.1927185 6.0930786 14.7100525l0 0c0 11.489273 -9.313873 20.803146 -20.803131 20.803146l0 0c-11.489258 0 -20.803162 -9.313873 -20.803162 -20.803146z" fill-rule="nonzero"></path><path fill="#000000" fill-opacity="0.0" d="m383.36746 132.44095l0 -50.267723" fill-rule="nonzero"></path><path stroke="#000000" stroke-width="1.0" stroke-linejoin="round" stroke-linecap="butt" d="m383.36746 132.44095l0 -46.84063" fill-rule="evenodd"></path><path fill="#000000" stroke="#000000" stroke-width="1.0" stroke-linecap="butt" d="m383.36746 85.60031l1.1245728 1.124588l-1.1245728 -3.0897675l-1.1246033 3.0897675z" fill-rule="evenodd"></path><path fill="#000000" fill-opacity="0.0" d="m335.69815 200.30183l41.606323 0l0 32.409454l-41.606323 0z" fill-rule="nonzero"></path><path fill="#000000" d="m349.44815 219.9562l-3.203125 -6.34375l1.609375 0q0.203125 0 0.28125 0.0625q0.09375 0.0625 0.15625 0.203125l2.421875 5.125q0.09375 -0.171875 0.21875 -0.34375l3.453125 -4.78125q0.109375 -0.125 0.203125 -0.1875q0.109375 -0.078125 0.25 -0.078125l1.828125 0l-4.765625 6.265625l3.59375 7.34375l-1.59375 0q-0.1875 0 -0.296875 -0.109375q-0.109375 -0.109375 -0.171875 -0.234375l-2.765625 -5.9375q-0.078125 0.15625 -0.171875 0.28125l-4.09375 5.65625q-0.25 0.34375 -0.59375 0.34375l-1.78125 0l5.421875 -7.265625z" fill-rule="nonzero"></path><path fill="#000000" d="m356.77042 233.0812q0 -0.046875 0 -0.09375q0 -0.0625 0.015625 -0.171875q0.015625 -0.109375 0.03125 -0.28125q0.015625 -0.171875 0.046875 -0.453125l0.375 -3.046875l-0.671875 0q-0.078125 0 -0.140625 -0.046875q-0.046875 -0.046875 -0.046875 -0.140625q0 -0.015625 0 -0.0625q0.015625 -0.0625 0.015625 -0.125q0.015625 -0.078125 0.03125 -0.140625q0.015625 -0.078125 0.015625 -0.140625l0.9375 -0.125l0.453125 -1.875q0.015625 -0.09375 0.078125 -0.140625q0.078125 -0.0625 0.171875 -0.0625l0.5625 0l-0.265625 2.09375l1.59375 0l-0.09375 0.765625l-1.59375 0l-0.375 2.984375q-0.03125 0.25 -0.046875 0.40625q0 0.140625 -0.015625 0.234375q-0.015625 0.09375 -0.015625 0.140625q0 0.03125 0 0.046875q0 0.296875 0.140625 0.453125q0.140625 0.140625 0.390625 0.140625q0.15625 0 0.265625 -0.046875q0.125 -0.046875 0.203125 -0.09375q0.09375 -0.0625 0.15625 -0.09375q0.0625 -0.046875 0.109375 -0.046875q0.046875 0 0.078125 0.03125q0.03125 0.015625 0.046875 0.0625l0.234375 0.515625q-0.296875 0.25 -0.671875 0.40625q-0.375 0.140625 -0.75 0.140625q-0.578125 0 -0.921875 -0.3125q-0.328125 -0.328125 -0.34375 -0.921875z" fill-rule="nonzero"></path><path fill="#ffc425" d="m362.5643 61.3832l0 0c0 -11.489262 9.313904 -20.80315 20.803162 -20.80315l0 0c5.517334 0 10.808685 2.1917534 14.7100525 6.0931015c3.9013367 3.901348 6.0930786 9.192711 6.0930786 14.710049l0 0c0 11.489265 -9.313873 20.803146 -20.803131 20.803146l0 0c-11.489258 0 -20.803162 -9.313881 -20.803162 -20.803146z" fill-rule="nonzero"></path><path stroke="#000000" stroke-width="1.0" stroke-linejoin="round" stroke-linecap="butt" d="m362.5643 61.3832l0 0c0 -11.489262 9.313904 -20.80315 20.803162 -20.80315l0 0c5.517334 0 10.808685 2.1917534 14.7100525 6.0931015c3.9013367 3.901348 6.0930786 9.192711 6.0930786 14.710049l0 0c0 11.489265 -9.313873 20.803146 -20.803131 20.803146l0 0c-11.489258 0 -20.803162 -9.313881 -20.803162 -20.803146z" fill-rule="nonzero"></path><path fill="#000000" fill-opacity="0.0" d="m330.66928 23.95013l41.606323 0l0 32.40945l-41.606323 0z" fill-rule="nonzero"></path><path fill="#000000" d="m346.1849 45.43263l-0.671875 5.4375l-1.78125 0l0.671875 -5.421875l-3.578125 -8.1875l1.5625 0q0.25 0 0.375 0.125q0.125 0.109375 0.1875 0.28125l2.265625 5.453125q0.09375 0.28125 0.15625 0.53125q0.078125 0.25 0.125 0.5q0.109375 -0.25 0.25 -0.5q0.140625 -0.25 0.296875 -0.53125l3.625 -5.453125q0.09375 -0.140625 0.25 -0.265625q0.15625 -0.140625 0.390625 -0.140625l1.46875 0l-5.59375 8.171875z" fill-rule="nonzero"></path><path fill="#000000" d="m351.4897 56.729504q0 -0.046875 0 -0.09375q0 -0.0625 0.015625 -0.171875q0.015625 -0.109375 0.03125 -0.28125q0.015625 -0.171875 0.046875 -0.453125l0.375 -3.046875l-0.671875 0q-0.078125 0 -0.140625 -0.046875q-0.046875 -0.046875 -0.046875 -0.140625q0 -0.015625 0 -0.0625q0.015625 -0.0625 0.015625 -0.125q0.015625 -0.078125 0.03125 -0.140625q0.015625 -0.078125 0.015625 -0.140625l0.9375 -0.125l0.453125 -1.875q0.015625 -0.09375 0.078125 -0.140625q0.078125 -0.0625 0.171875 -0.0625l0.5625 0l-0.265625 2.09375l1.59375 0l-0.09375 0.765625l-1.59375 0l-0.375 2.984375q-0.03125 0.25 -0.046875 0.40625q0 0.140625 -0.015625 0.234375q-0.015625 0.09375 -0.015625 0.140625q0 0.03125 0 0.046875q0 0.296875 0.140625 0.453125q0.140625 0.140625 0.390625 0.140625q0.15625 0 0.265625 -0.046875q0.125 -0.046875 0.203125 -0.09375q0.09375 -0.0625 0.15625 -0.09375q0.0625 -0.046875 0.109375 -0.046875q0.046875 0 0.078125 0.03125q0.03125 0.015625 0.046875 0.0625l0.234375 0.515625q-0.296875 0.25 -0.671875 0.40625q-0.375 0.140625 -0.75 0.140625q-0.578125 0 -0.921875 -0.3125q-0.328125 -0.328125 -0.34375 -0.921875z" fill-rule="nonzero"></path><path fill="#49dea4" d="m362.5643 153.2441l0 0c0 -11.489258 9.313904 -20.803146 20.803162 -20.803146l0 0c5.517334 0 10.808685 2.1917572 14.7100525 6.093094c3.9013367 3.901352 6.0930786 9.1927185 6.0930786 14.7100525l0 0c0 11.489258 -9.313873 20.803146 -20.803131 20.803146l0 0c-11.489258 0 -20.803162 -9.313889 -20.803162 -20.803146z" fill-rule="nonzero"></path><path stroke="#000000" stroke-width="1.0" stroke-linejoin="round" stroke-linecap="butt" d="m362.5643 153.2441l0 0c0 -11.489258 9.313904 -20.803146 20.803162 -20.803146l0 0c5.517334 0 10.808685 2.1917572 14.7100525 6.093094c3.9013367 3.901352 6.0930786 9.1927185 6.0930786 14.7100525l0 0c0 11.489258 -9.313873 20.803146 -20.803131 20.803146l0 0c-11.489258 0 -20.803162 -9.313889 -20.803162 -20.803146z" fill-rule="nonzero"></path><path fill="#000000" fill-opacity="0.0" d="m383.36746 224.44095l0 -50.393707" fill-rule="nonzero"></path><path stroke="#000000" stroke-width="1.0" stroke-linejoin="round" stroke-linecap="butt" d="m383.36746 224.44095l0 -46.966614" fill-rule="evenodd"></path><path fill="#000000" stroke="#000000" stroke-width="1.0" stroke-linecap="butt" d="m383.36746 177.47433l1.1245728 1.1245728l-1.1245728 -3.0897675l-1.1246033 3.0897675z" fill-rule="evenodd"></path><path fill="#000000" fill-opacity="0.0" d="m339.5328 100.03018l40.0 0l0 32.409454l-40.0 0z" fill-rule="nonzero"></path><path fill="#000000" d="m355.4078 118.872055q-0.078125 0.109375 -0.15625 0.171875q-0.078125 0.046875 -0.1875 0.046875q-0.140625 0 -0.296875 -0.109375q-0.15625 -0.109375 -0.375 -0.234375q-0.21875 -0.125 -0.546875 -0.234375q-0.328125 -0.109375 -0.78125 -0.109375q-0.421875 0 -0.78125 0.125q-0.34375 0.109375 -0.609375 0.328125q-0.25 0.203125 -0.390625 0.484375q-0.140625 0.28125 -0.140625 0.59375q0 0.4375 0.296875 0.703125q0.296875 0.265625 0.734375 0.46875q0.453125 0.1875 0.96875 0.375q0.515625 0.171875 0.953125 0.453125q0.453125 0.28125 0.75 0.703125q0.296875 0.421875 0.296875 1.109375q0 0.671875 -0.265625 1.28125q-0.25 0.59375 -0.75 1.0625q-0.484375 0.453125 -1.171875 0.734375q-0.6875 0.28125 -1.546875 0.28125q-0.921875 0 -1.625 -0.328125q-0.703125 -0.328125 -1.15625 -0.84375l0.421875 -0.640625q0.078125 -0.125 0.171875 -0.1875q0.109375 -0.078125 0.265625 -0.078125q0.15625 0 0.3125 0.140625q0.15625 0.125 0.375 0.296875q0.234375 0.15625 0.578125 0.296875q0.34375 0.140625 0.875 0.140625q0.46875 0 0.84375 -0.140625q0.375 -0.15625 0.625 -0.390625q0.265625 -0.234375 0.40625 -0.546875q0.140625 -0.328125 0.140625 -0.6875q0 -0.484375 -0.296875 -0.765625q-0.296875 -0.28125 -0.75 -0.46875q-0.4375 -0.203125 -0.953125 -0.359375q-0.5 -0.171875 -0.953125 -0.421875q-0.453125 -0.265625 -0.75 -0.6875q-0.28125 -0.421875 -0.28125 -1.109375q0 -0.609375 0.234375 -1.171875q0.25 -0.578125 0.703125 -1.015625q0.453125 -0.4375 1.09375 -0.6875q0.65625 -0.265625 1.484375 -0.265625q0.859375 0 1.515625 0.296875q0.671875 0.28125 1.140625 0.78125l-0.421875 0.609375z" fill-rule="nonzero"></path><path fill="#000000" d="m356.74323 132.80956q0 -0.046875 0 -0.09375q0 -0.0625 0.015625 -0.171875q0.015625 -0.109375 0.03125 -0.28125q0.015625 -0.171875 0.046875 -0.453125l0.375 -3.046875l-0.671875 0q-0.078125 0 -0.140625 -0.046875q-0.046875 -0.046875 -0.046875 -0.140625q0 -0.015625 0 -0.0625q0.015625 -0.0625 0.015625 -0.125q0.015625 -0.078125 0.03125 -0.140625q0.015625 -0.078125 0.015625 -0.140625l0.9375 -0.125l0.453125 -1.875q0.015625 -0.09375 0.078125 -0.140625q0.078125 -0.0625 0.171875 -0.0625l0.5625 0l-0.265625 2.09375l1.59375 0l-0.09375 0.765625l-1.59375 0l-0.375 2.984375q-0.03125 0.25 -0.046875 0.40625q0 0.140625 -0.015625 0.234375q-0.015625 0.09375 -0.015625 0.140625q0 0.03125 0 0.046875q0 0.296875 0.140625 0.453125q0.140625 0.140625 0.390625 0.140625q0.15625 0 0.265625 -0.046875q0.125 -0.046875 0.203125 -0.09375q0.09375 -0.0625 0.15625 -0.09375q0.0625 -0.046875 0.109375 -0.046875q0.046875 0 0.078125 0.03125q0.03125 0.015625 0.046875 0.0625l0.234375 0.515625q-0.296875 0.25 -0.671875 0.40625q-0.375 0.140625 -0.75 0.140625q-0.578125 0 -0.921875 -0.3125q-0.328125 -0.328125 -0.34375 -0.921875z" fill-rule="nonzero"></path><path fill="#000000" fill-opacity="0.0" d="m398.0775 138.53404c0 -12.01638 12.551178 -23.411163 26.461243 -24.032768c13.910034 -0.62161255 29.178894 9.529953 26.461243 19.37072c-2.717682 9.840759 -23.421875 19.370712 -46.84375 19.370712" fill-rule="nonzero"></path><path stroke="#000000" stroke-width="1.0" stroke-linejoin="round" stroke-linecap="butt" stroke-dasharray="4.0,3.0" d="m398.0775 138.53404c0 -12.016388 12.551178 -23.411163 26.461243 -24.032768c13.910034 -0.62161255 29.178894 9.529953 26.461243 19.370705c-1.3588562 4.9203796 -7.214325 9.763062 -15.657806 13.375656c-4.2217407 1.8062897 -9.090515 3.305069 -14.367676 4.352249c-2.6386108 0.52360535 -5.379303 0.9343109 -8.192291 1.2141113c-1.4064941 0.13990784 -2.8310242 0.24708557 -4.2699585 0.31929016l-0.92962646 0.040863037" fill-rule="evenodd"></path><path fill="#000000" stroke="#000000" stroke-width="1.0" stroke-linecap="butt" d="m407.58264 153.17415l1.1018677 -1.1468506l-3.0666504 1.1861725l3.1116333 1.0625458z" fill-rule="evenodd"></path></g></svg>

